<svg xmlns="http://www.w3.org/2000/svg" viewBox="0 0 76.4 48.442">
  <g id="industryico_Trans" transform="translate(-1282.628 -234.779)">
    <path id="Path_883" data-name="Path 883" d="M1319.949,265.5l-2.551-.507a1.2,1.2,0,1,0-.468,2.354l2.551.507a1.258,1.258,0,0,0,.235.023,1.2,1.2,0,0,0,.233-2.377Z"  />
    <path id="Path_884" data-name="Path 884" d="M1345.857,264.989l-2.551.507a1.2,1.2,0,0,0,.233,2.377,1.259,1.259,0,0,0,.235-.023l2.552-.507a1.2,1.2,0,0,0-.469-2.354Z"  />
    <path id="Path_885" data-name="Path 885" d="M1324.932,242.62h13.391a1.2,1.2,0,0,0,0-2.4h-13.391a1.2,1.2,0,0,0,0,2.4Z"  />
    <path id="Path_886" data-name="Path 886" d="M1358.723,243.21l-5.378-6.029a1.172,1.172,0,0,0-.344-.264,5.376,5.376,0,0,0-4.287-2.138h-34.173a5.379,5.379,0,0,0-4.287,2.137,1.193,1.193,0,0,0-.344.265l-5.378,6.029a1.2,1.2,0,0,0-.3.8v5.6a1.2,1.2,0,0,0,2.4,0v-5.137l2.525-2.832v31.482a4.287,4.287,0,0,0,4.281,4.281h1.889v3.3a2.53,2.53,0,0,0,2.527,2.527h3.272a2.531,2.531,0,0,0,2.528-2.527v-3.3H1339.6v3.3a2.531,2.531,0,0,0,2.528,2.527h3.272a2.531,2.531,0,0,0,2.528-2.527v-3.3h1.889a4.286,4.286,0,0,0,4.28-4.281V241.634l2.526,2.833V249.6a1.2,1.2,0,1,0,2.4,0v-5.6A1.2,1.2,0,0,0,1358.723,243.21Zm-44.182-6.031h34.173a2.991,2.991,0,0,1,2.988,2.988V256.3c-3.335,1.6-7.417,1.6-17.363,1.588l-2.711,0-2.712,0c-9.946.016-14.028.016-17.363-1.588V240.167A2.992,2.992,0,0,1,1314.541,237.179Zm6.709,43.515a.127.127,0,0,1-.128.127h-3.272a.127.127,0,0,1-.127-.127v-3.3h3.527Zm5.694-5.7v-4.943a2.185,2.185,0,0,1,2.182-2.182h5a2.185,2.185,0,0,1,2.182,2.182V275Zm18.589,5.7a.128.128,0,0,1-.128.127h-3.272a.128.128,0,0,1-.128-.127v-3.3h3.528Zm4.289-5.7h-11.111v-4.943a4.588,4.588,0,0,0-4.582-4.582h-5a4.588,4.588,0,0,0-4.582,4.582V275h-11.11a1.883,1.883,0,0,1-1.881-1.881V258.9c3.336,1.278,7.447,1.385,15.164,1.385l2.2,0,2.709,0,2.708,0,2.2,0c7.716,0,11.828-.107,15.164-1.385v14.213A1.883,1.883,0,0,1,1349.822,275Z"  />
    <path id="Path_887" data-name="Path 887" d="M1297.037,235.03h-11.762a2.65,2.65,0,0,0-2.647,2.647v14.954a2.649,2.649,0,0,0,2.647,2.647h4.681v25.543h-3.705a1.2,1.2,0,0,0,0,2.4h9.81a1.2,1.2,0,0,0,0-2.4h-3.705V255.278h4.681a2.649,2.649,0,0,0,2.647-2.647V237.677A2.65,2.65,0,0,0,1297.037,235.03Zm.247,17.6a.247.247,0,0,1-.247.247h-11.762a.247.247,0,0,1-.247-.247V237.677a.248.248,0,0,1,.247-.247h11.762a.248.248,0,0,1,.247.247Z"  />
  </g>
</svg>