<svg xmlns="http://www.w3.org/2000/svg" viewBox="0 0 68.377 53.806">
  <g id="industryico_Hosp" transform="translate(-1399.834 -343.198)">
    <path id="Path_514" data-name="Path 514" d="M1451.085,385.689h-34.107a1.294,1.294,0,0,1-1.293-1.294,18.338,18.338,0,0,1,36.675-.219,1.325,1.325,0,0,1,.018.219A1.294,1.294,0,0,1,1451.085,385.689Zm-32.761-2.587h31.4a15.752,15.752,0,0,0-31.4,0Z" fill="#333" />
    <path id="Path_515" data-name="Path 515" d="M1454,364.045a1.29,1.29,0,0,1-.979-.448,25.1,25.1,0,0,0-36.831-1.265,1.293,1.293,0,1,1-1.837-1.82,27.681,27.681,0,0,1,40.625,1.4,1.292,1.292,0,0,1-.978,2.138Z" fill="#333" />
    <path id="Path_516" data-name="Path 516" d="M1466.92,365.791a1.292,1.292,0,0,1-1.149-.7,35.754,35.754,0,0,0-63.495,0,1.293,1.293,0,0,1-2.3-1.191,38.34,38.34,0,0,1,68.086,0,1.294,1.294,0,0,1-1.146,1.889Z" fill="#333" />
    <path id="Path_517" data-name="Path 517" d="M1438.352,361h-8.658a1.293,1.293,0,0,0,0,2.586h3.036v.962a1.293,1.293,0,0,0,2.586,0v-.962h3.036a1.293,1.293,0,0,0,0-2.586Z" fill="#333" />
    <path id="Path_518" data-name="Path 518" d="M1452.982,397h-37.918a3.461,3.461,0,0,1-3.458-3.457V390.3a3.462,3.462,0,0,1,3.458-3.458h37.918a3.462,3.462,0,0,1,3.458,3.458v3.246A3.461,3.461,0,0,1,1452.982,397Zm-37.918-7.575a.873.873,0,0,0-.872.872v3.246a.873.873,0,0,0,.872.871h37.918a.873.873,0,0,0,.872-.871V390.3a.873.873,0,0,0-.872-.872Z" fill="#333" />
    <path id="Path_519" data-name="Path 519" d="M1422.971,381.152a1.294,1.294,0,0,1-1.248-1.639c1.956-7.057,8.569-8.922,11.792-8.922a1.293,1.293,0,0,1,0,2.586c-.31,0-7.393.13-9.3,7.027A1.3,1.3,0,0,1,1422.971,381.152Z" fill="#333" />
  </g>
</svg>