<svg xmlns="http://www.w3.org/2000/svg" viewBox="0 0 45.985 45.833">
  <path id="industryico_Aero" d="M2136.095,575.856a7.7,7.7,0,0,0-6.627-4.7,1.356,1.356,0,0,0-.433.058l-21.78,6.8-4.28-5.124c-.025-.03-.051-.058-.078-.085a10.412,10.412,0,0,0-6.973-3.42,5.53,5.53,0,0,0-3.993,1.638l-.091.091a5.751,5.751,0,0,0-1.465,5.512,11.632,11.632,0,0,0,3.245,5.456c.027.027.056.054.086.079l5.018,4.191-6.779,21.714a1.274,1.274,0,0,0-.058.434,7.7,7.7,0,0,0,4.7,6.626,1.312,1.312,0,0,0,.481.092,1.3,1.3,0,0,0,1.15-.7c3.891-7.553,8.567-16.523,10.352-19.944l10.58,8.836-.38,1.576a9,9,0,0,0,1.043,6.764l.018.028a1.294,1.294,0,0,0,1.076.576h0a1.293,1.293,0,0,0,1.076-.581l3.037-4.6,1.277-.263a1.815,1.815,0,0,0,1.427-1.422l.264-1.283,4.6-3.036a1.293,1.293,0,0,0,.008-2.153l-.087-.056a9.056,9.056,0,0,0-6.708-1.008l-1.576.38-8.74-10.465c3.377-1.762,12.406-6.469,20-10.382A1.293,1.293,0,0,0,2136.095,575.856Zm-39.577,36.31a5.239,5.239,0,0,1-2.029-3.569l6.383-20.449,5.663,4.73C2105.066,595.694,2100.492,604.463,2096.518,612.166Zm27.531-11.13,2.357-.568a6.484,6.484,0,0,1,2.667-.076l-2.955,1.951a1.292,1.292,0,0,0-.555.818l-.271,1.318-1.318.271a1.294,1.294,0,0,0-.818.554l-1.951,2.955a6.418,6.418,0,0,1,.076-2.666l.568-2.357a1.292,1.292,0,0,0-.428-1.3L2109,591.569c-.013-.011-.025-.022-.039-.032l-7.9-6.6-.029-.024-5.627-4.7a9.015,9.015,0,0,1-2.509-4.15,3.171,3.171,0,0,1,.767-3.118l.091-.091c1.664-1.662,4.675-.835,7.271,1.74l21.725,26.012A1.293,1.293,0,0,0,2124.049,601.036Zm-10.262-15.2-4.738-5.672,20.515-6.4a5.247,5.247,0,0,1,3.569,2.029C2125.377,579.791,2116.54,584.4,2113.787,585.837Z" transform="translate(-2090.203 -569.387)"  />
</svg>