<svg xmlns="http://www.w3.org/2000/svg" viewBox="0 0 75.574 51.464">
  <g id="industryico_Ed" transform="translate(-1962.213 -233.268)">
    <path id="Path_923" data-name="Path 923" d="M2036.506,247.6l-32.269-14a4.115,4.115,0,0,0-3.254,0l-33.911,14.389a2.121,2.121,0,0,0-.386,3.662v7.57c-1.808,1.931-4.473,5.053-4.473,6.678,0,1.7,2.988,5.352,4.768,7.376.016.018.035.03.051.047s.036.042.058.062.034.024.05.037.052.039.079.056a1.191,1.191,0,0,0,.129.075c.026.013.052.027.079.038a1.282,1.282,0,0,0,.156.05c.023.006.045.014.068.018a1.2,1.2,0,0,0,.231.024h0a1.2,1.2,0,0,0,.231-.024c.023,0,.045-.012.068-.018a1.216,1.216,0,0,0,.155-.05c.028-.011.054-.025.08-.038a1.191,1.191,0,0,0,.129-.075c.027-.017.053-.036.079-.056s.034-.023.05-.037.038-.042.058-.062.035-.029.051-.047c1.78-2.024,4.767-5.673,4.767-7.376,0-1.622-2.656-4.738-4.464-6.669v-6.5l8.015,3.392V276.8a1.2,1.2,0,0,0,.495.972c.155.112.334.269.552.456,2.26,1.946,7.552,6.5,24.339,6.5,14.785,0,20.507-3.978,23.257-5.89.378-.262.7-.489.956-.634a1.2,1.2,0,0,0,.6-1.04v-21.23a1.174,1.174,0,0,0-.032-.267l9.263-4.175a2.128,2.128,0,0,0-.027-3.892Zm-68.624,23.035c-1.6-1.932-3.118-4.034-3.264-4.732a16.306,16.306,0,0,1,2.762-3.86,1.174,1.174,0,0,0,1.007,0,16.251,16.251,0,0,1,2.759,3.857C1971,266.6,1969.488,268.707,1967.882,270.639Zm57.02,5.87c-.166.112-.341.234-.528.363-2.548,1.773-7.853,5.46-21.886,5.46-15.9,0-20.715-4.149-22.772-5.921l-.214-.182V257.145l21.255,8.994a4.072,4.072,0,0,0,3.321-.012l20.824-9.388Zm-21.811-12.57a1.66,1.66,0,0,1-1.381,0l-32.8-13.879a1.231,1.231,0,0,0-.133-.18l33.161-14.069a1.684,1.684,0,0,1,1.344-.006l31.7,13.759Z"  />
    <path id="Path_924" data-name="Path 924" d="M2011.971,278.03l.081,0c4.123-.275,8.368-3.033,8.547-3.15a1.2,1.2,0,0,0-1.318-2.006c-.038.025-3.888,2.528-7.388,2.762a1.2,1.2,0,0,0,.078,2.4Z"  />
  </g>
</svg>