<svg xmlns="http://www.w3.org/2000/svg" viewBox="0 0 59.837 51.012">
  <g id="industryico_Tele" transform="translate(-2988.84 -344.595)">
    <path id="Path_549" data-name="Path 549" d="M3018.759,395.607a7.726,7.726,0,1,1,7.718-7.718A7.727,7.727,0,0,1,3018.759,395.607Zm0-12.429a4.764,4.764,0,0,0-3.347,1.385,4.711,4.711,0,1,0,6.683-.01A4.756,4.756,0,0,0,3018.759,383.178Z"  />
    <path id="Path_550" data-name="Path 550" d="M3031.138,377.013a1.5,1.5,0,0,1-1.063-.441,16.018,16.018,0,0,0-22.632,0,1.5,1.5,0,0,1-2.128-2.127,19.025,19.025,0,0,1,26.887,0,1.5,1.5,0,0,1-1.064,2.568Z"  />
    <path id="Path_551" data-name="Path 551" d="M3038.9,369.257a1.5,1.5,0,0,1-1.133-.514,25.279,25.279,0,0,0-38.009,0,1.5,1.5,0,0,1-2.264-1.982,28.288,28.288,0,0,1,42.537,0,1.505,1.505,0,0,1-1.131,2.5Z"  />
    <path id="Path_552" data-name="Path 552" d="M3047.173,360.991a1.5,1.5,0,0,1-1.276-.7,35.368,35.368,0,0,0-54.339.074,1.5,1.5,0,0,1-2.718-.867v-.025a1.5,1.5,0,0,1,.346-.961,38.376,38.376,0,0,1,59.145,0,1.515,1.515,0,0,1-1.158,2.478Z"  />
  </g>
</svg>