<svg xmlns="http://www.w3.org/2000/svg" viewBox="0 0 65.005 64.098">
  <g id="industryico_Health" transform="translate(-1967.498 -560.255)">
    <path id="Path_750" data-name="Path 750" d="M2007.3,624.353a1.337,1.337,0,0,1-.177-.012,1.282,1.282,0,0,1-1.094-1.444c.016-.113,1.56-11.336,1.832-15.855a37.024,37.024,0,0,1,1.163-8.262,18.558,18.558,0,0,1,1.689-3.7c.367-.634.87-1.5,1.75-3.194.1-.192.251-.444.436-.752a15.258,15.258,0,0,0,2.468-6.718c.192-2.447,1.344-3.372,2.277-3.718a4.692,4.692,0,0,1,4.521,1.211,3.277,3.277,0,0,1,.76,1.21c.009-.207.014-.414.014-.621v-.111a18.042,18.042,0,0,0-1.779-7.825c-1.889-3.938.285-6.1,1-6.813a1.273,1.273,0,0,1,.989-.371c1.641.109,4.659,2.367,6.089,5.115,3.874,7.441,3.228,16.081,3.221,16.166l-.008.086c-.018.223-.047.56-.114.98a27.219,27.219,0,0,1-8.176,15.36l-1.819,1.72c-2,2.875-3.894,7.067-3.058,16.148a1.281,1.281,0,1,1-2.551.235c-.928-10.077,1.429-14.892,3.586-17.961a1.252,1.252,0,0,1,.169-.2l1.912-1.807a24.655,24.655,0,0,0,7.408-13.905c.053-.337.075-.608.09-.787l.009-.1c.007-.079.539-8.072-2.942-14.756a9.352,9.352,0,0,0-3.5-3.555c-.474.639-.814,1.628,0,3.332a20.635,20.635,0,0,1,2.032,8.939v.109a18.409,18.409,0,0,1-3.943,11.28c-.046.059-.087.112-.12.16-.691,1-1.392.9-1.858.648-.382-.208-.95-.729-.472-1.872a18.4,18.4,0,0,0,1.092-3.5c.9-4.348.348-5.3.158-5.493a2.286,2.286,0,0,0-1.824-.626c-.46.171-.582,1.117-.613,1.516a17.579,17.579,0,0,1-2.83,7.844c-.15.249-.275.452-.356.608-.907,1.745-1.427,2.642-1.807,3.3a16.05,16.05,0,0,0-1.486,3.257h0a37.021,37.021,0,0,0-1.025,7.573c-.277,4.617-1.787,15.586-1.851,16.051A1.281,1.281,0,0,1,2007.3,624.353Z" fill="#333" />
    <path id="Path_751" data-name="Path 751" d="M1992.7,624.353a1.283,1.283,0,0,1-1.268-1.106c-.064-.465-1.573-11.434-1.85-16.051a36.145,36.145,0,0,0-1.046-7.632,15.757,15.757,0,0,0-1.465-3.2c-.38-.655-.9-1.552-1.808-3.3-.08-.155-.205-.358-.355-.607a17.572,17.572,0,0,1-2.83-7.845c-.031-.4-.154-1.345-.613-1.516a2.3,2.3,0,0,0-1.825.626c-.19.189-.741,1.145.158,5.493a18.451,18.451,0,0,0,1.092,3.5c.479,1.143-.09,1.664-.471,1.872-.467.255-1.167.349-1.859-.648-.033-.048-.073-.1-.119-.16A18.392,18.392,0,0,1,1974.5,582.5v-.1a20.636,20.636,0,0,1,2.031-8.947c.818-1.706.477-2.694,0-3.334a9.384,9.384,0,0,0-3.5,3.556c-3.48,6.685-2.949,14.677-2.942,14.755l.01.109c.015.18.037.448.09.78a24.649,24.649,0,0,0,7.408,13.905l1.912,1.807a1.306,1.306,0,0,1,.168.2c2.158,3.068,4.515,7.883,3.586,17.961a1.281,1.281,0,1,1-2.551-.235c.837-9.082-1.061-13.273-3.058-16.148l-1.819-1.72a27.225,27.225,0,0,1-8.176-15.361c-.066-.413-.095-.746-.113-.969l-.009-.095c-.007-.086-.653-8.726,3.221-16.167,1.431-2.748,4.449-5.006,6.09-5.115a1.266,1.266,0,0,1,.989.371c.713.711,2.887,2.876,1,6.813a18.051,18.051,0,0,0-1.779,7.821v.118c0,.206.005.412.014.618a3.288,3.288,0,0,1,.759-1.21,4.694,4.694,0,0,1,4.522-1.211c.933.346,2.085,1.271,2.277,3.718a15.275,15.275,0,0,0,2.468,6.72c.186.306.337.558.436.75.881,1.693,1.384,2.561,1.751,3.194a18.4,18.4,0,0,1,1.669,3.643,36.676,36.676,0,0,1,1.183,8.318c.271,4.519,1.816,15.742,1.831,15.855a1.281,1.281,0,0,1-1.093,1.444A1.34,1.34,0,0,1,1992.7,624.353Z" fill="#333" />
    <path id="Path_752" data-name="Path 752" d="M2018.673,568.05a10.25,10.25,0,0,0-7.781-7.344c-3.792-.737-7.749.689-10.839,3.834-2.868-3.233-6.669-4.774-10.414-4.148a10.546,10.546,0,0,0-8.311,7.658c-4.945,16.2,17.208,26.222,18.154,26.641a1.027,1.027,0,0,0,.107.035c.03.01.059.021.09.029a1.263,1.263,0,0,0,.321.046h0a1.269,1.269,0,0,0,.321-.046c.031-.008.06-.019.091-.029s.071-.019.106-.035C2001.465,594.272,2023.617,584.246,2018.673,568.05ZM2000,592.1c-3.2-1.561-20.13-10.505-16.222-23.3a8.039,8.039,0,0,1,6.283-5.88c3.217-.537,6.542,1.088,8.9,4.345.007.01.016.017.024.027a1.288,1.288,0,0,0,.087.1c.031.033.061.065.094.094.009.007.016.017.025.024s.045.029.067.044a1.328,1.328,0,0,0,.117.077,1.087,1.087,0,0,0,.109.052,1.171,1.171,0,0,0,.116.047,1.246,1.246,0,0,0,.121.031c.04.009.079.017.12.023s.079.006.119.007.086,0,.129,0,.075-.009.113-.015a1.075,1.075,0,0,0,.129-.026,1.166,1.166,0,0,0,.114-.038c.039-.015.078-.03.117-.048a1.337,1.337,0,0,0,.116-.068c.024-.015.049-.025.072-.042s.017-.017.027-.024c.034-.027.066-.057.1-.087s.064-.061.093-.094c.008-.009.017-.016.025-.026,2.6-3.207,6.119-4.737,9.407-4.1a7.631,7.631,0,0,1,5.82,5.578C2020.124,581.579,2003.2,590.539,2000,592.1Z" fill="#333" />
    <path id="Path_753" data-name="Path 753" d="M1997.184,585.181a1.283,1.283,0,0,1-1.084-.6l-2.455-3.9h-3.8a1.282,1.282,0,0,1,0-2.563h4.505a1.283,1.283,0,0,1,1.085.6l1.387,2.207,3.381-10.167a1.28,1.28,0,0,1,2.341-.206l4.068,7.509,3.523-.039a1.281,1.281,0,0,1,.029,2.562l-4.3.048h-.014a1.281,1.281,0,0,1-1.127-.671l-3.027-5.588-3.3,9.936a1.28,1.28,0,0,1-1.062.867A1.135,1.135,0,0,1,1997.184,585.181Z" fill="#333" />
  </g>
</svg>