<svg xmlns="http://www.w3.org/2000/svg" viewBox="0 0 65.767 61.389">
  <g id="industryico_Services" transform="translate(-3665.047 -450.508)">
    <g id="Group_242" data-name="Group 242">
      <path id="Path_278" data-name="Path 278" d="M3676.223,511.83a6.5,6.5,0,0,1-4.667-1.984l-.085-.084c-2.812-2.812-2.627-7.072.434-10.132l30.109-30.11c-1.441-5.412-.127-11.1,3.441-14.664a14.744,14.744,0,0,1,10.5-4.348,14.96,14.96,0,0,1,3.546.427,1.975,1.975,0,0,1,.921,3.314l-7.8,7.8,6.646,6.645,7.8-7.8a1.974,1.974,0,0,1,3.313.921,14.749,14.749,0,0,1-3.92,14.043,14.367,14.367,0,0,1-10.293,4.007,17.047,17.047,0,0,1-4.371-.567l-30.11,30.11A7.777,7.777,0,0,1,3676.223,511.83Zm39.729-58.747a12.19,12.19,0,0,0-8.677,3.594c-3.063,3.064-4.078,8.1-2.585,12.828a1.288,1.288,0,0,1-.317,1.3l-30.647,30.647a5.387,5.387,0,0,0-1.657,3.339,3.947,3.947,0,0,0,1.219,3.149l.084.083c1.783,1.782,4.523,1.535,6.492-.433l30.647-30.648a1.292,1.292,0,0,1,1.3-.317,14.439,14.439,0,0,0,4.356.668,11.819,11.819,0,0,0,8.472-3.253,12.176,12.176,0,0,0,3.455-10.53l-7.3,7.3a2.216,2.216,0,0,1-3.062,0l-7.225-7.225a2.165,2.165,0,0,1,0-3.062l7.3-7.3A12.361,12.361,0,0,0,3715.952,453.083Z"  />
    </g>
    <g id="Group_243" data-name="Group 243">
      <path id="Path_279" data-name="Path 279" d="M3677.326,505.324a1.287,1.287,0,0,1-.9-2.205l1.013-1a1.287,1.287,0,0,1,1.8,1.836l-1.013,1A1.282,1.282,0,0,1,3677.326,505.324Z"  />
    </g>
    <g id="Group_244" data-name="Group 244">
      <path id="Path_280" data-name="Path 280" d="M3678.238,505.324a1.286,1.286,0,0,1-.9-.369l-1.012-1a1.287,1.287,0,1,1,1.8-1.836l1.012,1a1.287,1.287,0,0,1-.9,2.205Z"  />
    </g>
    <g id="Group_246" data-name="Group 246">
      <path id="Path_281" data-name="Path 281" d="M3714.2,511.9a9.43,9.43,0,0,1-6.681-2.755l-10.573-10.574a1.287,1.287,0,1,1,1.82-1.82l10.572,10.572a6.932,6.932,0,0,0,9.765,0l.067-.077a6.9,6.9,0,0,0,.046-9.81L3708.6,486.816a1.287,1.287,0,0,1,1.82-1.821l10.614,10.615a9.469,9.469,0,0,1,0,13.405l-.067.077A9.561,9.561,0,0,1,3714.2,511.9Z"  />
    </g>
    <path id="Path_282" data-name="Path 282" d="M3696.647,471.212l-.649-.649a2.638,2.638,0,0,0-3.513-.148l-1.506-1.505a2.817,2.817,0,0,0-3.892,0l-.818.818L3677.1,460.5a1.277,1.277,0,0,0-.085-1.144l-2.146-3.53a1.3,1.3,0,0,0-.438-.436l-3.447-2.062a1.286,1.286,0,0,0-1.571.2l-3.99,3.989a1.288,1.288,0,0,0-.2,1.572l2.082,3.476a1.264,1.264,0,0,0,.44.441l3.511,2.118a1.211,1.211,0,0,0,1.306-.014l9.1,9.219-.861.861a2.756,2.756,0,0,0,0,3.891l1.506,1.507a2.632,2.632,0,0,0,.159,3.519l.449.45a1.288,1.288,0,1,0,1.821-1.821l-.456-.518.71-.709c.01-.01.022-.017.032-.027l4.481-4.481,3.876-3.871.8-.731.641.64a1.287,1.287,0,0,0,1.818-1.822Zm-7.614-.534a.17.17,0,0,1,.125.052l1.489,1.488-3.63,3.634-2.894,2.9-1.491-1.491a.178.178,0,0,1,0-.251l4.539-4.538,0,0,0,0,1.732-1.732A.176.176,0,0,1,3689.033,470.678Zm-15.5-8.259,0,0,0,0a1.273,1.273,0,0,0-.341-.228,1.238,1.238,0,0,0-.239-.084,1.293,1.293,0,0,0-.316-.064,1.247,1.247,0,0,0-.247.045,1.349,1.349,0,0,0-.236.044,1.383,1.383,0,0,0-.179.114,1.229,1.229,0,0,0-.241.154l-2.373-1.431-1.4-2.339,2.57-2.57,2.312,1.383,1.467,2.412a1.335,1.335,0,0,0-.067.145,1.378,1.378,0,0,0-.08.176,1.7,1.7,0,0,0,.029.915,1.261,1.261,0,0,0,.237.359c.012.013.015.03.028.043l10,10.063-.955.954Z"  />
    <g id="Group_247" data-name="Group 247">
      <path id="Path_283" data-name="Path 283" d="M3714.436,500.293a1.285,1.285,0,0,1-.91-.377L3704.608,491a1.288,1.288,0,1,1,1.821-1.821l8.917,8.918a1.288,1.288,0,0,1-.91,2.2Z"  />
    </g>
    <g id="Group_248" data-name="Group 248">
      <path id="Path_284" data-name="Path 284" d="M3710.888,503.853a1.282,1.282,0,0,1-.911-.377L3701.1,494.6a1.287,1.287,0,1,1,1.821-1.82l8.875,8.875a1.287,1.287,0,0,1-.91,2.2Z"  />
    </g>
  </g>
</svg>