<svg xmlns="http://www.w3.org/2000/svg" viewBox="0 0 46.964 64.511">
  <g id="industryico_Cons" transform="translate(-364.346 -874.251)">
    <path id="Path_1002" data-name="Path 1002" d="M551.919,845.326l-2.542-46.3a1.2,1.2,0,0,0-1.2-1.134h-6.943v-2.854c0-.016,0-.031-.005-.046a12.78,12.78,0,0,0-25.559.045h0v2.854h-6.943a1.2,1.2,0,0,0-1.2,1.134L504.98,845.5a1.2,1.2,0,0,0,1.2,1.266H550.73a.024.024,0,0,1,.012,0,1.2,1.2,0,0,0,1.2-1.2A1.218,1.218,0,0,0,551.919,845.326Zm-33.847-50.291h0a10.381,10.381,0,1,1,20.762,0l0,.023v2.832H518.072v-2.854Zm-10.626,49.327,2.419-44.072h5.807v4.2a1.2,1.2,0,1,0,2.4,0v-4.2h20.764v4.2a1.2,1.2,0,1,0,2.4,0v-4.2h5.807l2.419,44.072Z" transform="translate(-140.632 92)" fill="#333" />
    <g id="Group_865" data-name="Group 865" transform="translate(-1268.5 6)">
      <g id="Group_687" data-name="Group 687" transform="translate(1658.287 903.321)">
        <path id="Path_792" data-name="Path 792" d="M1672.66,910.414h0a4.04,4.04,0,0,1-2.229-.621.78.78,0,0,1-.3-.9c.387-1.127,2.005-1.476,2.551-1.476a1.091,1.091,0,0,1,.317.042,1.159,1.159,0,0,1,.721,1.121,2.734,2.734,0,0,0,.166.721.779.779,0,0,1-.588,1.069A4.108,4.108,0,0,1,1672.66,910.414Z" transform="translate(-1670.084 -907.415)" fill="#333" />
      </g>
      <g id="Group_688" data-name="Group 688" transform="translate(1645.211 899.503)">
        <path id="Path_793" data-name="Path 793" d="M1655.512,913.732a3.093,3.093,0,0,1-2.507-1.3c-.392-.518-.815-1.167-1.263-1.853a16.964,16.964,0,0,0-2.048-2.769.779.779,0,0,1-.912-1.221,1.151,1.151,0,0,1,.958-.4c1,.07,1.863,1.327,3.308,3.542.433.663.841,1.29,1.2,1.765a1.521,1.521,0,0,0,1.349.674,2.308,2.308,0,0,0,1.688-.924c.387-.689-.192-4.883-.708-5.913-.091-.183-.176-.337-.255-.48a6.032,6.032,0,0,1-.81-2.861.779.779,0,0,1,1.551-.148,4.527,4.527,0,0,0,.624,2.258c.088.159.182.33.284.535.521,1.042,1.512,5.994.644,7.42a3.869,3.869,0,0,1-2.94,1.67C1655.62,913.731,1655.566,913.732,1655.512,913.732Z" transform="translate(-1648.589 -901.14)" fill="#333" />
      </g>
      <g id="Group_689" data-name="Group 689" transform="translate(1667.77 908.917)">
        <path id="Path_794" data-name="Path 794" d="M1686.794,918.952a1.1,1.1,0,0,1-.92-.406c-.313-.413-.259-.944.16-1.58a1.252,1.252,0,1,1,1.714,1.8A3.2,3.2,0,0,1,1686.794,918.952Z" transform="translate(-1685.673 -916.616)" fill="#333" />
      </g>
      <path id="Path_795" data-name="Path 795" d="M1672.447,908.864c-.695-1.435-2.627-1.978-4.332-2.458a5.759,5.759,0,0,1-3.577-2.271,2.627,2.627,0,0,0-1.276-2.368c-1.172-2.655-4.908-3.966-6.5-4.413a9.985,9.985,0,0,0-4.771-.187c-.422.065-.821.127-1.193.157-4.464.058-6.53,3.93-7.057,6.152-.558.616-2.648,2.924-3.582,3.974a.779.779,0,1,0,1.165,1.035c1.08-1.214,3.71-4.115,3.711-4.115a.78.78,0,0,0,.187-.369c.01-.051,1.076-5.06,5.646-5.121.482-.036.93-.106,1.362-.173a8.458,8.458,0,0,1,4.11.147c2.934.828,5.012,2.214,5.561,3.708a.781.781,0,0,0,.331.4c.644.386.646.405.759,1.382l.016.135a.786.786,0,0,0,.093.288,7.055,7.055,0,0,0,4.591,3.142c1.319.371,2.962.833,3.351,1.637a1.231,1.231,0,0,1-.075,1.1c-.246.592-.431,1.136-.594,1.616a11.476,11.476,0,0,1-.6,1.543,13.955,13.955,0,0,1-4.921.9l-.392.024c-3.23.207-4.427-.664-4.82-.95a.779.779,0,0,0-.917,1.26,7.918,7.918,0,0,0,4.78,1.28q.509,0,1.058-.035l.388-.024c.682-.043,1.372-.088,2.06-.166a13.737,13.737,0,0,1-5.25,1.031,11.8,11.8,0,0,1-2.854-.633.769.769,0,0,0-.5,0c-.885.294-1.206,1.313-1.49,2.211a5.649,5.649,0,0,1-.416,1.084.779.779,0,0,0,1.332.809,6.639,6.639,0,0,0,.57-1.423,7.366,7.366,0,0,1,.4-1.074,11.655,11.655,0,0,0,2.959.587,14.4,14.4,0,0,0,6.893-1.669A5.946,5.946,0,0,0,1671,914.8l.01-.016a11.033,11.033,0,0,0,.839-2.023c.163-.479.332-.974.558-1.517A2.808,2.808,0,0,0,1672.447,908.864Z" transform="translate(0 0)" fill="#333" />
    </g>
  </g>
</svg>