<svg xmlns="http://www.w3.org/2000/svg" viewBox="0 0 66.893 49.06">
  <g id="industryico_Member" transform="translate(-3890.875 -234.47)">
    <path id="Path_17" data-name="Path 17" d="M3952.663,283.53h-56.684a5.115,5.115,0,0,1-5.1-5.112V246.74a5.114,5.114,0,0,1,5.1-5.112h18.279v2.418h-18.279a2.693,2.693,0,0,0-2.686,2.694v31.678a2.693,2.693,0,0,0,2.686,2.693h56.684a2.693,2.693,0,0,0,2.687-2.693V246.74a2.694,2.694,0,0,0-2.687-2.694h-18.278v-2.418h18.278a5.114,5.114,0,0,1,5.1,5.112v31.678A5.115,5.115,0,0,1,3952.663,283.53Z" fill="#333" />
    <path id="Path_18" data-name="Path 18" d="M3932.208,247.58h-15.774a3.39,3.39,0,0,1-3.386-3.386v-2.981a3.39,3.39,0,0,1,3.386-3.386h3.484a4.567,4.567,0,0,1,8.808,0h3.482a3.389,3.389,0,0,1,3.386,3.386v2.981A3.389,3.389,0,0,1,3932.208,247.58Zm-15.774-7.334a.968.968,0,0,0-.967.967v2.981a.968.968,0,0,0,.967.968h15.774a.969.969,0,0,0,.968-.968v-2.981a.969.969,0,0,0-.968-.967h-5.739v-1.21a2.147,2.147,0,0,0-4.295,0v1.21Z" fill="#333" />
    <path id="Path_19" data-name="Path 19" d="M3915.055,262a10.643,10.643,0,0,0-2.006-.943,5.138,5.138,0,1,0-5.669.006,10.656,10.656,0,0,0-1.988.937c-3.309,2.012-4.784,5.187-4.784,10.3a1.209,1.209,0,0,0,2.418,0c0-5.311,1.831-7.141,3.622-8.23a6.305,6.305,0,0,1,7.151,0c1.791,1.089,3.622,2.919,3.622,8.23a1.209,1.209,0,0,0,2.418,0C3919.839,267.19,3918.364,264.015,3915.055,262Zm-4.845-7.936a2.721,2.721,0,1,1-2.714,2.715A2.72,2.72,0,0,1,3910.21,254.067Z" fill="#333" />
    <path id="Path_20" data-name="Path 20" d="M3946.81,257.239h-20.44a1.21,1.21,0,0,1,0-2.419h20.44a1.21,1.21,0,1,1,0,2.419Z" fill="#333" />
    <path id="Path_21" data-name="Path 21" d="M3946.81,263.788h-20.44a1.21,1.21,0,0,1,0-2.419h20.44a1.21,1.21,0,1,1,0,2.419Z" fill="#333" />
    <path id="Path_22" data-name="Path 22" d="M3940.551,270.337H3926.37a1.21,1.21,0,0,1,0-2.419h14.181a1.21,1.21,0,0,1,0,2.419Z" fill="#333" />
  </g>
</svg>