<svg xmlns="http://www.w3.org/2000/svg" viewBox="0 0 45.115 67.846">
  <g id="industryico_Energy" transform="translate(-275.293 -279.381)">
    <path id="Path_1007" data-name="Path 1007" d="M754.851,558.381a22.559,22.559,0,0,0-17.106,37.265l0,.005c6.328,7.607,7.311,12.112,7.447,13.651v.777c0,.013,0,.025,0,.038,0,.035.006.068.01.1s.01.09.02.134.018.058.027.087a1.388,1.388,0,0,0,.048.133c.012.026.027.05.04.074a1.094,1.094,0,0,0,.074.124c.017.024.037.046.056.068a1.139,1.139,0,0,0,.091.1c.023.022.05.041.075.062s.067.056.1.08.058.032.087.047a1.332,1.332,0,0,0,.119.06c.031.012.063.019.094.029a1.263,1.263,0,0,0,.134.036l.021.006a1.284,1.284,0,0,0,.184.015H763.3a1.2,1.2,0,0,0,1.193-1.124v-.014c0-.021.006-.041.006-.062v-.756c.129-1.515,1.088-6.007,7.4-13.616l.022-.024.013-.015a22.564,22.564,0,0,0-17.092-37.287Zm0,2.4a20.164,20.164,0,0,1,15.279,33.314c-.006.008-.014.013-.021.021-5.949,7.151-7.537,11.846-7.918,14.262a1.184,1.184,0,0,0-.086.438v.063H747.6v-.063a1.2,1.2,0,0,0-.082-.428c-.377-2.4-1.951-7.07-7.845-14.18l-.006-.008-.069-.083h0l-.012-.014a20.16,20.16,0,0,1,15.269-33.321Z" transform="translate(-457 -279)" fill="#333" />
    <path id="Path_1008" data-name="Path 1008" d="M763.536,617.986a1.2,1.2,0,0,0-1.408.943c-.041.2-1.067,4.9-7.277,4.9s-7.234-4.688-7.277-4.9a1.2,1.2,0,0,0-2.357.453c.449,2.368,3.039,6.845,9.634,6.845s9.185-4.477,9.633-6.845A1.2,1.2,0,0,0,763.536,617.986Z" transform="translate(-457 -279)" fill="#333" />
    <path id="Path_1009" data-name="Path 1009" d="M762.525,617.659H747.177a1.2,1.2,0,0,1,0-2.4h15.348a1.2,1.2,0,0,1,0,2.4Z" transform="translate(-457 -279)" fill="#333" />
    <path id="Path_1010" data-name="Path 1010" d="M762.525,614.539H747.177a1.2,1.2,0,0,1,0-2.4h15.348a1.2,1.2,0,0,1,0,2.4Z" transform="translate(-457 -279)" fill="#333" />
    <path id="Path_1011" data-name="Path 1011" d="M769.448,577.537a1.2,1.2,0,0,0-1.394.005c-1.358.977-2.638,1.209-5.44,1.716-1.013.184-2.273.412-3.771.722a9.415,9.415,0,0,0-3.362,1.338,1.191,1.191,0,0,0-.428.517,11.785,11.785,0,0,0-3.651-1.9,31.854,31.854,0,0,1-8.182-4.221,1.2,1.2,0,0,0-1.992.921c.027,1.7-.047,3.138-.113,4.411a22.349,22.349,0,0,0,.484,7.455,8.84,8.84,0,0,0,9.054,7.015h0a15.111,15.111,0,0,0,3.172-.365,12.058,12.058,0,0,0,.209,4.655,1.2,1.2,0,0,0,1.17.939,1.174,1.174,0,0,0,.262-.029,1.2,1.2,0,0,0,.911-1.432,9.076,9.076,0,0,1-.058-4.367,11.675,11.675,0,0,0,4.231.9,7.015,7.015,0,0,0,3.239-.749c2.107-1.079,3.566-3.222,4.339-6.372.311-1.265.549-2.87.8-4.57a45.111,45.111,0,0,1,.978-5.281A1.2,1.2,0,0,0,769.448,577.537Zm-14.22,14c-3.034-1.668-4.916-4.988-5.765-6.492-.168-.3-.3-.536-.406-.7a1.2,1.2,0,1,0-2.019,1.3c.084.133.195.331.336.579a20.156,20.156,0,0,0,5.507,6.669,12.287,12.287,0,0,1-2.227.223h0a6.449,6.449,0,0,1-6.732-5.223,20.183,20.183,0,0,1-.409-6.723c.036-.71.076-1.471.1-2.3a32.638,32.638,0,0,0,7.073,3.357C756.1,584.039,756.019,587.638,755.228,591.539Zm11.327-7.757c-.243,1.642-.474,3.193-.757,4.349-.412,1.68-1.286,3.877-3.1,4.808-1.356.693-3.132.631-5.273-.168l.054-.26c.06-.277.125-.582.189-.907a1.228,1.228,0,0,0,.155-.2,20.513,20.513,0,0,1,5.653-5.6,1.2,1.2,0,1,0-1.408-1.944,29.064,29.064,0,0,0-4.092,3.459,7.883,7.883,0,0,0-1.392-3.887,1.175,1.175,0,0,0,.239-.123,7.053,7.053,0,0,1,2.509-.98c1.469-.3,2.661-.52,3.713-.71a29.445,29.445,0,0,0,3.995-.892C766.863,581.707,766.707,582.753,766.555,583.782Z" transform="translate(-457 -279)" fill="#333" />
  </g>
</svg>