<svg xmlns="http://www.w3.org/2000/svg" viewBox="0 0 63.622 58.199">
  <g id="industryico_Auto" transform="translate(-949.431 -452.103)">
    <path id="Path_504" data-name="Path 504" d="M1008.73,478.863a4.494,4.494,0,0,0,3.7-1.9,6.1,6.1,0,0,0,.625-3.245c-.029-1.7-.495-3.468-2.3-4.031a4.3,4.3,0,0,0-5.023,1.936q-.483-2.937-.968-5.874l-.591-3.588c-.136-.819-.16-1.632-1.041-2.022a27.751,27.751,0,0,0-7.055-1.8c-2.222-.338-4.463-.547-6.706-.687-.157-.01-1.649-.072-1.649-.108v-.629c0-.562.032-1.135-.008-1.7a3.4,3.4,0,0,0-3.4-3.117h-6.075a3.394,3.394,0,0,0-3.364,3.373v1.585c0,.084.055.424,0,.495q-1.13.054-2.26.131c-2.133.149-4.264.366-6.373.718a22.178,22.178,0,0,0-6.339,1.787,4.054,4.054,0,0,0-.992.636c-.658.629-.634,2.252-.769,3.072l-1.3,7.85a4.3,4.3,0,0,0-5.3-1.988c-1.829.7-2.113,2.634-2.1,4.361a4.884,4.884,0,0,0,1.1,3.468,4.133,4.133,0,0,0,1.974,1.073,4.5,4.5,0,0,0,1.465.2c.192.052,1.277.715,1.222.873-.876,2.537-2.006,4.938-2.128,7.658a32.109,32.109,0,0,0,1.013,8.951c.052.449-.044.915,0,1.365,0,.346.137.4-.023.724a3.664,3.664,0,0,0-.27.738,5.3,5.3,0,0,0-.1,1.269,3.662,3.662,0,0,0,2.87,3.794c.427.084,1.085-.161,1.085.332v1.963c0,1.451.207,2.882,1.733,3.529a7.118,7.118,0,0,0,2.712.223h4.1c.806,0,1.634.056,2.438-.01a2.942,2.942,0,0,0,2.6-3.2c0-.245-.018-2.774.018-2.774h19.09c.277,0,.8-.153.8.175,0,1.059-.077,2.146.009,3.2a2.893,2.893,0,0,0,2.995,2.6h7.006a3.362,3.362,0,0,0,3.024-1.162c.77-1.05.548-2.518.548-3.744a5.864,5.864,0,0,1,.029-1.075,9.984,9.984,0,0,0,1.9-.066,3.662,3.662,0,0,0,2.871-3.794,4.8,4.8,0,0,0-.17-1.523c-.121-.371-.324-.573-.247-.952a3.1,3.1,0,0,0,.026-.61,8.122,8.122,0,0,1,.191-1.843,35.672,35.672,0,0,0,.832-6.426,13.741,13.741,0,0,0-1.167-6.5l-1.009-2.125q-.2-.43-.409-.861c-.151-.319.9-.717,1.164-.736C1013.171,478.513,1008.657,478.868,1008.73,478.863Zm-1.624-2.881c.823-.588.368-1.672.609-2.507a2.036,2.036,0,0,1,1-1.263c.333-.174,1.267-.27,1.526.139a4.128,4.128,0,0,1-.092,3.382,1.694,1.694,0,0,1-1.115.495,5.349,5.349,0,0,0-2.435.737C1006.5,476.327,1006.583,476.355,1007.106,475.982Zm-50.439,20.432a8.68,8.68,0,0,0-.353-1.955q-.275-1.38-.449-2.778a20.078,20.078,0,0,1-.056-5.859,7.24,7.24,0,0,1,.29-1.151c.111-.319.969-.113,1.291-.084,1.064.094,2.127.214,3.188.338,2.37.277,4.736.58,7.106.856A108.5,108.5,0,0,0,982.2,486.79c4.849-.091,9.687-.643,14.5-1.2,2.219-.255,4.437-.526,6.658-.766,1-.109,2-.213,3-.287.615-.044.7-.094.864.493a9.071,9.071,0,0,1,.266,1.426,23.5,23.5,0,0,1-.24,5.916q-.176,1.229-.429,2.443c-.064.308-.133.616-.208.922-.106.434.1.674-.362.674H956.667Zm48.6-14.379c-7.94.709-15.847,2.137-23.838,2.178-8.15.041-16.172-1.6-24.27-2.241a15.275,15.275,0,0,1,.832-2.4h46.664c.242,0,1.061,2.159,1.182,2.413C1005.647,482,1005.457,482.018,1005.267,482.035Zm-43.313-5.048q.89-5.885,1.778-11.768c.065-.43,3.227-.531,3.569-.559,3.8-.307,7.628-.345,11.439-.354,5.973-.012,12.024-.189,17.965.51.566.067,1.134.143,1.691.266.406.09.32.7.376,1.077l1.149,7.6q.244,1.611.487,3.224H961.954Zm15.494-19.572c0-.634-.271-2,.226-2.5.437-.437,1.594-.226,2.135-.226H983.2c.633,0,1.928-.214,1.928.771a11.4,11.4,0,0,1-.045,1.955h-7.633Zm-16.472,5.106a13.942,13.942,0,0,1,3.422-1.135,55.694,55.694,0,0,1,9.08-1.168,128.692,128.692,0,0,1,14.958-.031,64.12,64.12,0,0,1,9.73,1.156c.74.157,1.476.336,2.2.552.2.061,1.171.251,1.207.466q.354,2.154.71,4.309l1.7,10.317a3.817,3.817,0,0,1-.965-.027c-.033-.223-.067-.447-.1-.67l-.474-3.137-1.164-7.7a5.61,5.61,0,0,0-.346-1.911c-.451-.719-1.641-.9-2.389-1.046a50.184,50.184,0,0,0-8.011-.669c-3.517-.113-7.036-.1-10.555-.1-3.822,0-7.65.018-11.466.253a23.724,23.724,0,0,0-5.855.8c-1.649.538-1.449,1.821-1.679,3.346q-.555,3.666-1.108,7.333-.215,1.416-.428,2.833c-.114.753-.024.7-.854.7Q959.783,469.754,960.976,462.521Zm-7.127,13.754c-1.078-.1-1.744-.425-1.819-1.573a5.482,5.482,0,0,1,.141-2.212c.2-.519.948-.418,1.388-.372a2.347,2.347,0,0,1,1.3,2.566,1.458,1.458,0,0,0,.733,1.451c.471.336.466.313.371.889a3.545,3.545,0,0,0-2.113-.749C952.03,476.112,954.562,476.233,953.849,476.275Zm14.792,31.169c0,.52-5.8.25-6.408.25-.309,0-2,.237-2-.3v-3.088c0-.023,5.718-.012,6.178-.012h1.544c.106,0,.6-.074.687,0,.125.112,0,1.073,0,1.238v1.907Zm33.49,0c0,.52-5.8.25-6.408.25-.309,0-2,.237-2-.3v-3.088c0-.023,5.719-.012,6.179-.012h1.543c.107,0,.6-.074.688,0,.124.112,0,1.073,0,1.238v1.907Zm4.8-6.7c0,1.394-2.337.973-3.2.973H958.178c-.557,0-1.292.129-1.688-.364a2.05,2.05,0,0,1,0-1.983c.463-.577,1.709-.365,2.355-.365h47.05C1006.94,499,1006.932,499.968,1006.932,500.74Z"  />
    <path id="Path_505" data-name="Path 505" d="M989.008,489.15H974.242c-1.443,0-1.335,1.444-1.335,2.454,0,.927-.354,2.809.46,3.495.5.419,1.276.3,1.883.3H987.1c1.075,0,3.2.348,3.2-1.3v-2.654C990.3,490.5,990.352,489.15,989.008,489.15Zm-1.293,3.667H975.644c-.29,0-.352-1.08.044-1.08h11.877C987.908,491.737,987.715,492.542,987.715,492.817Z"  />
    <path id="Path_506" data-name="Path 506" d="M1001.332,486.256a10.35,10.35,0,0,0-3.668,1.119,11.882,11.882,0,0,0-3.446,2.041,3.209,3.209,0,0,0-1.049,3.424c.474,1.369,1.928,1.791,3.245,1.791a20.56,20.56,0,0,0,3.609-.47,8.155,8.155,0,0,0,3.486-1.222C1006.014,491.068,1004.505,486.256,1001.332,486.256Zm-2.52,5.489c-.55.093-1.1.2-1.657.257-.277.028-1.834.249-1.494-.361.543-.973,2.266-1.562,3.213-1.959.629-.264,2-1.044,2.672-.8.528.191.735,1.291.54,1.771C1001.722,491.548,999.553,491.621,998.812,491.745Z"  />
    <path id="Path_507" data-name="Path 507" d="M961.959,486.393c-3.287-.988-5.708,3.627-3.627,6.063,1.442,1.686,4.574,1.915,6.652,2.123,1.348.135,3.028.089,3.9-1.129a2.972,2.972,0,0,0-.224-3.492c-1.556-1.938-4.4-2.875-6.7-3.565Zm3.989,5.651a18.579,18.579,0,0,1-4.4-.7c-1.217-.314-1.539-.776-1.133-2.048s4.082.806,4.836,1.228a5.625,5.625,0,0,1,1.291.9C967.068,491.967,966.448,492.044,965.948,492.044Z"  />
  </g>
</svg>