<svg xmlns="http://www.w3.org/2000/svg" viewBox="0 0 65.194 65.194">
  <g id="industryico_Tech" transform="translate(-412.854 -1288.808)">
    <path id="Path_242" data-name="Path 242" d="M65.556,703.126a10.381,10.381,0,1,0,10.381,10.381A10.393,10.393,0,0,0,65.556,703.126Zm0,18.188a7.807,7.807,0,1,1,7.806-7.807A7.816,7.816,0,0,1,65.556,721.314Z" transform="translate(369.772 618)"  />
    <path id="Path_243" data-name="Path 243" d="M84.448,707.231H81.789c-.1-.253-.2-.5-.31-.75l1.884-1.883a3.619,3.619,0,0,0,0-5.118L79.6,695.721a3.619,3.619,0,0,0-5.118,0L72.609,697.6q-.378-.17-.756-.315v-2.648a3.624,3.624,0,0,0-3.619-3.619H62.92a3.623,3.623,0,0,0-3.618,3.619v2.631c-.261.1-.517.206-.769.319l-1.864-1.864a3.619,3.619,0,0,0-5.118,0l-3.759,3.759a3.618,3.618,0,0,0,0,5.117l1.853,1.853c-.116.261-.224.52-.324.781H46.7a3.622,3.622,0,0,0-3.618,3.618v5.32a3.623,3.623,0,0,0,3.618,3.619h2.624q.15.393.32.775l-1.852,1.852a3.623,3.623,0,0,0,0,5.118l3.759,3.759a3.618,3.618,0,0,0,5.117,0l1.865-1.865c.252.113.508.218.769.319v2.637A3.622,3.622,0,0,0,62.92,736h5.314a3.623,3.623,0,0,0,3.619-3.619V729.73c.252-.1.5-.2.756-.315l1.877,1.877a3.624,3.624,0,0,0,5.118,0l3.759-3.759a3.619,3.619,0,0,0,0-5.118l-1.884-1.883c.11-.248.213-.495.309-.744h2.66a3.624,3.624,0,0,0,3.619-3.619v-5.32A3.623,3.623,0,0,0,84.448,707.231Zm1.044,8.938a1.045,1.045,0,0,1-1.044,1.044H80.889c-.02,0-.039.005-.059.006a1.109,1.109,0,0,0-.128.013c-.043.006-.086.014-.128.024s-.073.022-.109.034a1.144,1.144,0,0,0-.126.051c-.034.016-.066.035-.1.054s-.075.045-.11.07-.063.051-.093.077-.061.055-.089.085-.054.064-.08.1-.049.066-.071.1-.04.071-.058.108a1.056,1.056,0,0,0-.054.124c-.007.018-.017.034-.023.052a13.757,13.757,0,0,1-.873,2.109c-.013.025-.019.051-.03.077s-.017.042-.025.064a1.245,1.245,0,0,0-.082.422c0,.019,0,.037,0,.056a1.285,1.285,0,0,0,.083.426c.007.019.015.036.023.055a1.281,1.281,0,0,0,.25.375c.006.007.008.016.015.023l2.518,2.518a1.044,1.044,0,0,1,0,1.477l-3.759,3.759a1.045,1.045,0,0,1-1.476,0l-2.512-2.512a.2.2,0,0,0-.024-.015,1.271,1.271,0,0,0-.375-.25l-.053-.023a1.3,1.3,0,0,0-.428-.083c-.018,0-.036,0-.054,0a1.257,1.257,0,0,0-.424.082l-.063.025c-.025.011-.051.017-.076.03a13.752,13.752,0,0,1-2.12.879c-.019.006-.035.016-.054.023a1.215,1.215,0,0,0-.124.053c-.037.018-.073.037-.107.058a1.236,1.236,0,0,0-.1.071c-.034.026-.067.052-.1.081a.97.97,0,0,0-.083.086,1.251,1.251,0,0,0-.08.1c-.024.033-.046.068-.068.1s-.04.07-.057.106a1.675,1.675,0,0,0-.085.237c-.009.038-.016.077-.022.117a1.287,1.287,0,0,0-.014.139c0,.019-.006.036-.006.056v3.552a1.045,1.045,0,0,1-1.044,1.044H62.92a1.045,1.045,0,0,1-1.043-1.044v-3.534c0-.018,0-.035-.006-.052a1.281,1.281,0,0,0-.014-.139c-.006-.039-.012-.078-.022-.117s-.023-.08-.037-.12a1.165,1.165,0,0,0-.046-.116,1.1,1.1,0,0,0-.058-.106,1.184,1.184,0,0,0-.067-.106,1.167,1.167,0,0,0-.079-.1,1.18,1.18,0,0,0-.084-.089c-.03-.028-.062-.053-.1-.079s-.067-.05-.1-.073-.067-.038-.1-.056-.086-.04-.131-.057c-.016-.005-.03-.015-.046-.02a14.1,14.1,0,0,1-2.136-.886c-.026-.013-.053-.02-.08-.031s-.042-.017-.063-.025a1.263,1.263,0,0,0-.424-.083h-.054a1.278,1.278,0,0,0-.429.084c-.017.006-.034.014-.051.021a1.251,1.251,0,0,0-.378.252c-.007.006-.016.008-.023.014l-2.5,2.5a1.046,1.046,0,0,1-1.477,0l-3.758-3.759a1.045,1.045,0,0,1,0-1.477l2.488-2.487c.006-.007.009-.016.015-.023a1.278,1.278,0,0,0,.249-.375c.008-.019.017-.037.024-.056a1.3,1.3,0,0,0,.083-.424c0-.02,0-.038,0-.058a1.3,1.3,0,0,0-.082-.422c-.009-.022-.016-.042-.026-.064s-.018-.053-.031-.079a13.974,13.974,0,0,1-.885-2.139.453.453,0,0,0-.022-.05,1.1,1.1,0,0,0-.055-.127.937.937,0,0,0-.056-.1c-.023-.037-.049-.072-.075-.107s-.048-.062-.075-.091-.064-.063-.1-.093-.054-.047-.083-.068a1.455,1.455,0,0,0-.124-.079c-.028-.016-.055-.032-.085-.046a1.237,1.237,0,0,0-.14-.056c-.031-.011-.062-.021-.1-.03s-.092-.019-.14-.026a1.123,1.123,0,0,0-.117-.012c-.021,0-.041-.006-.062-.006H46.7a1.045,1.045,0,0,1-1.044-1.044v-5.32A1.045,1.045,0,0,1,46.7,709.8h3.53a1.307,1.307,0,0,0,.35-.056c.025-.007.049-.014.073-.023a1.3,1.3,0,0,0,.311-.158c.014-.01.026-.022.039-.033a1.3,1.3,0,0,0,.232-.231c.012-.015.025-.028.036-.043a1.312,1.312,0,0,0,.164-.326c0-.012.012-.021.016-.033a13.636,13.636,0,0,1,.884-2.141c.013-.025.019-.051.03-.076s.017-.041.025-.063a1.306,1.306,0,0,0,.082-.423c0-.019,0-.037,0-.056a1.3,1.3,0,0,0-.083-.427c-.007-.018-.016-.035-.024-.053a1.257,1.257,0,0,0-.25-.377c-.006-.006-.008-.015-.014-.022l-2.488-2.487a1.046,1.046,0,0,1,0-1.477l3.76-3.759a1.069,1.069,0,0,1,1.476,0l2.5,2.5c.011.01.025.013.035.023a1.316,1.316,0,0,0,.339.225c.036.016.07.032.107.045a1.142,1.142,0,0,0,.86,0,.935.935,0,0,0,.088-.033c.024-.01.049-.015.073-.027a14.1,14.1,0,0,1,2.136-.886c.016-.005.03-.014.046-.02.045-.017.088-.036.131-.057s.069-.036.1-.056a.972.972,0,0,0,.1-.073c.034-.026.066-.051.1-.079a1.181,1.181,0,0,0,.084-.089,1.166,1.166,0,0,0,.079-.095,1.054,1.054,0,0,0,.067-.106,1.072,1.072,0,0,0,.058-.1,1.188,1.188,0,0,0,.046-.117c.014-.04.027-.079.037-.12a1.148,1.148,0,0,0,.022-.117,1.283,1.283,0,0,0,.014-.139c0-.017.006-.034.006-.052v-3.528a1.045,1.045,0,0,1,1.043-1.044h5.314a1.045,1.045,0,0,1,1.044,1.044v3.547c0,.019,0,.036.006.055a1.284,1.284,0,0,0,.014.139c.006.04.013.079.022.117a1.2,1.2,0,0,0,.038.12,1.183,1.183,0,0,0,.047.117c.017.036.037.071.057.106s.044.071.068.1.052.065.08.1a.954.954,0,0,0,.083.086c.031.029.064.055.1.081a1.236,1.236,0,0,0,.1.071c.034.021.07.04.107.058s.082.038.124.054c.019.006.035.017.054.022a13.662,13.662,0,0,1,2.119.88c.023.012.048.016.072.026a.849.849,0,0,0,.084.031,1.281,1.281,0,0,0,.431.085,1.294,1.294,0,0,0,.431-.084c.037-.014.071-.03.107-.046a1.278,1.278,0,0,0,.337-.224c.011-.01.025-.013.036-.024l.025-.025h0l2.487-2.487a1.069,1.069,0,0,1,1.476,0l3.759,3.76a1.043,1.043,0,0,1,0,1.476l-2.518,2.518c-.007.007-.008.016-.015.023a1.278,1.278,0,0,0-.249.375c-.009.019-.017.036-.024.055a1.285,1.285,0,0,0-.083.426c0,.019,0,.037,0,.056a1.261,1.261,0,0,0,.082.424c.008.021.015.041.024.061s.018.052.03.078a13.747,13.747,0,0,1,.874,2.115c0,.012.013.021.017.032a1.257,1.257,0,0,0,.163.323c.012.016.026.03.038.045a1.323,1.323,0,0,0,.231.23c.014.01.025.022.038.031a1.3,1.3,0,0,0,.311.158l.073.022a1.255,1.255,0,0,0,.348.056h3.567a1.045,1.045,0,0,1,1.044,1.044Z" transform="translate(369.772 618)"  />
    <path id="Path_244" data-name="Path 244" d="M93.25,678.646a7.174,7.174,0,1,0,7.174,7.174A7.182,7.182,0,0,0,93.25,678.646Zm0,11.773a4.6,4.6,0,1,1,4.6-4.6A4.6,4.6,0,0,1,93.25,690.419Z" transform="translate(369.772 618)"  />
    <path id="Path_245" data-name="Path 245" d="M105.479,681.3h-1.311l.93-.93a2.8,2.8,0,0,0,0-3.954l-2.434-2.434a2.8,2.8,0,0,0-3.954,0l-.93.929V673.6a2.8,2.8,0,0,0-2.8-2.8H91.545a2.8,2.8,0,0,0-2.8,2.8v1.311l-.929-.929a2.8,2.8,0,0,0-3.955,0l-2.433,2.433a2.8,2.8,0,0,0,0,3.955l.929.929H81.045a2.8,2.8,0,0,0-2.8,2.8v3.443a2.8,2.8,0,0,0,2.8,2.8h1.312l-.926.926a2.8,2.8,0,0,0,0,3.954l2.433,2.433a2.794,2.794,0,0,0,3.955,0l.929-.929v1.315a2.8,2.8,0,0,0,2.8,2.8h3.439a2.8,2.8,0,0,0,2.8-2.8v-1.315l.93.929a2.794,2.794,0,0,0,3.955,0l2.433-2.433a2.8,2.8,0,0,0,0-3.954l-.926-.926h1.307a2.8,2.8,0,0,0,2.8-2.8V684.1A2.8,2.8,0,0,0,105.479,681.3Zm.222,6.24a.221.221,0,0,1-.222.221h-2.3c-.019,0-.037.005-.055.006a1.266,1.266,0,0,0-.139.014c-.039.006-.078.013-.116.022a1.226,1.226,0,0,0-.122.038c-.039.014-.077.028-.115.046s-.072.038-.108.059a1.129,1.129,0,0,0-.1.066,1.25,1.25,0,0,0-.1.08c-.03.027-.059.054-.086.083s-.055.064-.081.1-.049.067-.071.1a1.214,1.214,0,0,0-.058.107,1.278,1.278,0,0,0-.054.125c-.007.018-.017.033-.023.052a8.393,8.393,0,0,1-.536,1.295c-.013.025-.019.052-.03.077s-.017.042-.025.063a1.256,1.256,0,0,0-.082.423c0,.019,0,.037,0,.056a1.29,1.29,0,0,0,.083.427c.007.018.015.035.023.054a1.285,1.285,0,0,0,.25.376c.007.006.008.015.015.022l1.63,1.63a.221.221,0,0,1,0,.314l-2.433,2.433a.194.194,0,0,1-.314,0L98.9,694.206c-.006-.007-.015-.009-.022-.015a1.287,1.287,0,0,0-.376-.25l-.055-.023a1.267,1.267,0,0,0-.423-.083h-.061a1.288,1.288,0,0,0-.42.082c-.022.008-.042.015-.063.025s-.053.017-.078.03a8.4,8.4,0,0,1-1.3.54c-.018.006-.035.016-.053.023a1.06,1.06,0,0,0-.124.053c-.037.018-.073.037-.108.058s-.068.046-.1.071-.068.052-.1.081-.056.056-.083.086a1.194,1.194,0,0,0-.079.1,1.034,1.034,0,0,0-.068.1c-.021.035-.04.07-.058.106s-.033.077-.047.117a1.192,1.192,0,0,0-.037.12,1.154,1.154,0,0,0-.023.117,1.284,1.284,0,0,0-.014.139c0,.019,0,.036,0,.055v2.3a.223.223,0,0,1-.222.222H91.545a.222.222,0,0,1-.222-.222v-2.287c0-.018,0-.035,0-.052a1.266,1.266,0,0,0-.014-.138c-.006-.04-.013-.08-.022-.118s-.023-.079-.037-.118a1.132,1.132,0,0,0-.047-.119c-.017-.036-.036-.07-.056-.1s-.044-.073-.069-.108-.05-.063-.077-.093a1.221,1.221,0,0,0-.086-.09,1.051,1.051,0,0,0-.1-.078,1.143,1.143,0,0,0-.1-.074.937.937,0,0,0-.1-.056,1.1,1.1,0,0,0-.127-.056c-.016-.006-.031-.016-.048-.021a8.632,8.632,0,0,1-1.314-.546c-.026-.013-.054-.02-.081-.031l-.061-.025a1.267,1.267,0,0,0-.425-.082.506.506,0,0,0-.055,0,1.27,1.27,0,0,0-.427.083l-.054.023a1.278,1.278,0,0,0-.375.249c-.007.007-.017.009-.024.016L86,695.832a.193.193,0,0,1-.313,0L83.251,693.4a.223.223,0,0,1,0-.314l1.61-1.61c.007-.007.009-.016.016-.023a1.278,1.278,0,0,0,.249-.375l.024-.055a1.283,1.283,0,0,0,.082-.425.561.561,0,0,0,0-.058,1.255,1.255,0,0,0-.082-.423c-.008-.021-.015-.041-.025-.062s-.018-.054-.031-.08a8.547,8.547,0,0,1-.544-1.315c-.006-.018-.015-.033-.022-.05a1.314,1.314,0,0,0-.055-.127c-.018-.035-.035-.07-.056-.1s-.049-.073-.076-.109-.047-.06-.074-.089-.064-.063-.1-.094-.054-.046-.082-.068a1.348,1.348,0,0,0-.123-.078c-.029-.017-.057-.033-.087-.047a1.261,1.261,0,0,0-.137-.055c-.033-.011-.065-.022-.1-.031a1.19,1.19,0,0,0-.135-.025,1.223,1.223,0,0,0-.123-.013c-.02,0-.039-.006-.059-.006h-2.28a.221.221,0,0,1-.221-.221V684.1a.221.221,0,0,1,.221-.222h2.288a1.269,1.269,0,0,0,.35-.056l.072-.022a1.289,1.289,0,0,0,.311-.159c.014-.01.026-.022.04-.032a1.271,1.271,0,0,0,.232-.232c.012-.015.025-.027.036-.043a1.254,1.254,0,0,0,.163-.325c0-.012.013-.021.017-.033a8.428,8.428,0,0,1,.543-1.315c.013-.025.019-.051.03-.076s.016-.042.024-.063a1.282,1.282,0,0,0,.083-.423c0-.02,0-.038,0-.057a1.283,1.283,0,0,0-.082-.425l-.024-.056a1.287,1.287,0,0,0-.249-.374c-.007-.007-.009-.016-.016-.024l-1.609-1.608a.224.224,0,0,1,0-.315l2.434-2.433a.222.222,0,0,1,.313,0l1.594,1.594h0l.023.023c.01.01.024.013.034.023a1.292,1.292,0,0,0,.339.225c.036.017.07.032.107.046a1.3,1.3,0,0,0,.432.084,1.279,1.279,0,0,0,.43-.085c.029-.01.057-.019.086-.032s.05-.015.074-.027a8.6,8.6,0,0,1,1.313-.545c.017-.005.031-.015.047-.021a1,1,0,0,0,.13-.057c.035-.017.069-.035.1-.055s.072-.048.106-.074.064-.05.094-.078a1.208,1.208,0,0,0,.085-.09.989.989,0,0,0,.078-.094,1.076,1.076,0,0,0,.068-.107,1.047,1.047,0,0,0,.057-.1,1.2,1.2,0,0,0,.047-.118c.014-.04.027-.079.037-.119s.016-.078.022-.118a1.273,1.273,0,0,0,.014-.137c0-.018,0-.035,0-.053V673.6a.221.221,0,0,1,.222-.221h3.439a.222.222,0,0,1,.222.221v2.3c0,.019,0,.037,0,.056a1.282,1.282,0,0,0,.014.139,1.1,1.1,0,0,0,.023.117c.01.041.023.081.037.121s.03.078.047.115.037.072.058.107a1.242,1.242,0,0,0,.068.1c.025.034.052.065.079.1a1.151,1.151,0,0,0,.084.087,1.216,1.216,0,0,0,.1.08,1.2,1.2,0,0,0,.1.072c.034.02.069.039.106.057a1.322,1.322,0,0,0,.127.055c.018.006.034.016.052.022a8.35,8.35,0,0,1,1.3.54c.023.012.048.016.072.026s.055.021.083.031a1.284,1.284,0,0,0,.431.085,1.3,1.3,0,0,0,.432-.084c.037-.014.071-.03.107-.046a1.278,1.278,0,0,0,.337-.224c.011-.01.025-.013.035-.024l.025-.025h0l1.6-1.6a.223.223,0,0,1,.314,0l2.433,2.433a.221.221,0,0,1,0,.314l-1.63,1.63c-.007.007-.009.016-.016.023a1.3,1.3,0,0,0-.248.375c-.008.019-.017.036-.024.055a1.284,1.284,0,0,0-.083.425c0,.019,0,.038,0,.057a1.256,1.256,0,0,0,.082.423c.008.021.016.042.025.063s.017.052.03.077a8.453,8.453,0,0,1,.536,1.3c0,.012.013.02.017.032a1.283,1.283,0,0,0,.163.322c.012.017.026.03.038.046a1.289,1.289,0,0,0,.232.229c.013.01.024.022.038.031a1.241,1.241,0,0,0,.31.158c.024.009.048.016.073.023a1.294,1.294,0,0,0,.348.055h2.312a.221.221,0,0,1,.222.222Z" transform="translate(369.772 618)"  />
  </g>
</svg>