<svg xmlns="http://www.w3.org/2000/svg" viewBox="0 0 77.671 61.036">
  <g id="industryico_Fin" transform="translate(-1734.774 -783.988)">
    <g id="Group_621" data-name="Group 621">
      <path id="Path_713" data-name="Path 713" d="M1794.244,805.072a1.281,1.281,0,0,1-.942-.412,26.877,26.877,0,0,0-19.7-8.627,26.48,26.48,0,0,0-12.3,2.988,1.282,1.282,0,0,1-1.179-2.276,29.376,29.376,0,0,1,35.063,6.177,1.281,1.281,0,0,1-.941,2.15Z" fill="#333" />
    </g>
    <g id="Group_622" data-name="Group 622">
      <path id="Path_714" data-name="Path 714" d="M1809.93,814.521a1.284,1.284,0,0,1-1.239-.956,36.014,36.014,0,0,0-2.705-7.115,1.281,1.281,0,0,1,2.285-1.158,38.6,38.6,0,0,1,2.9,7.621,1.281,1.281,0,0,1-.913,1.565A1.265,1.265,0,0,1,1809.93,814.521Z" fill="#333" />
    </g>
    <g id="Group_623" data-name="Group 623">
      <path id="Path_715" data-name="Path 715" d="M1803.846,801.828a1.276,1.276,0,0,1-1.031-.521,36.863,36.863,0,0,0-2.812-3.365,1.281,1.281,0,1,1,1.864-1.758,39.176,39.176,0,0,1,3.009,3.6,1.281,1.281,0,0,1-1.03,2.042Z" fill="#333" />
    </g>
    <g id="Group_624" data-name="Group 624">
      <path id="Path_716" data-name="Path 716" d="M1794.726,793.047a1.279,1.279,0,0,1-.72-.222,35.957,35.957,0,0,0-12.131-5.328,1.282,1.282,0,0,1,.583-2.5,38.546,38.546,0,0,1,12.991,5.706,1.281,1.281,0,0,1-.723,2.34Z" fill="#333" />
    </g>
    <g id="Group_625" data-name="Group 625">
      <path id="Path_717" data-name="Path 717" d="M1746.324,798.3a1.281,1.281,0,0,1-.931-2.161,38.479,38.479,0,0,1,28.213-12.153,1.281,1.281,0,0,1,0,2.562,35.938,35.938,0,0,0-26.351,11.351A1.275,1.275,0,0,1,1746.324,798.3Z" fill="#333" />
    </g>
    <g id="Group_626" data-name="Group 626">
      <path id="Path_718" data-name="Path 718" d="M1738.027,812.065a1.282,1.282,0,0,1-1.213-1.692,38.693,38.693,0,0,1,2.551-5.88,1.281,1.281,0,0,1,2.258,1.211,36.121,36.121,0,0,0-2.382,5.49A1.282,1.282,0,0,1,1738.027,812.065Z" fill="#333" />
    </g>
    <path id="Path_719" data-name="Path 719" d="M1802.962,822.779a29.075,29.075,0,0,0-2.918-12.729,1.281,1.281,0,1,0-2.306,1.116,26.534,26.534,0,0,1,2.664,11.662c0,.012,0,.022,0,.033v5.159a1.281,1.281,0,0,0,2.562,0v-5.2C1802.967,822.809,1802.963,822.794,1802.962,822.779Z" fill="#333" />
    <g id="Group_627" data-name="Group 627">
      <path id="Path_720" data-name="Path 720" d="M1811.164,832.09a1.282,1.282,0,0,1-1.281-1.281v-7.984a1.281,1.281,0,1,1,2.562,0v7.984A1.281,1.281,0,0,1,1811.164,832.09Z" fill="#333" />
    </g>
    <path id="Path_721" data-name="Path 721" d="M1736.6,816.294a1.279,1.279,0,0,0-1.447,1.09,39.289,39.289,0,0,0-.378,5.44h0v8.913a1.281,1.281,0,0,0,2.562,0v-8.91a36.708,36.708,0,0,1,.353-5.088A1.28,1.28,0,0,0,1736.6,816.294Z" fill="#333" />
    <path id="Path_722" data-name="Path 722" d="M1754.353,802.355a1.28,1.28,0,0,0-1.811.027,29.2,29.2,0,0,0-8.293,20.446c0,.012,0,.022,0,.033v2a1.281,1.281,0,0,0,2.562,0v-2.034a.234.234,0,0,0,0-.026,26.658,26.658,0,0,1,7.569-18.633A1.28,1.28,0,0,0,1754.353,802.355Z" fill="#333" />
    <path id="Path_723" data-name="Path 723" d="M1778.078,833.922a3.362,3.362,0,0,0-3.358-3.358h-2.1a.8.8,0,0,1-.795-.8v-.336a.8.8,0,0,1,.795-.8h3.519a1.281,1.281,0,0,0,0-2.562h-1.186v-.437a1.281,1.281,0,0,0-2.562,0v.46a3.352,3.352,0,0,0-3.128,3.335v.336a3.361,3.361,0,0,0,3.357,3.358h2.1a.807.807,0,0,1,.8.838.8.8,0,0,1-.8.8H1771.2a1.281,1.281,0,1,0,0,2.562h1.186v.437a1.281,1.281,0,0,0,2.562,0v-.46A3.364,3.364,0,0,0,1778.078,833.922Z" fill="#333" />
    <path id="Path_724" data-name="Path 724" d="M1778.6,818c.368-2.312,3.462-6.9,5.78-9.7a1.281,1.281,0,0,0-1.527-1.978,32.818,32.818,0,0,1-4.28,1.68,7.208,7.208,0,0,0-4.2-2.332,1.423,1.423,0,0,0-1.146.538,8.6,8.6,0,0,1-1.432,1.469c-.826-.608-2.141-.864-4.3-.864-.867,0-1.884.04-3.2.123a1.281,1.281,0,0,0-.757,2.247c3.129,2.71,4.816,6.917,5.447,8.787a28.941,28.941,0,0,0-6.067,4.772,15.07,15.07,0,0,0-1.376,19.554l.088.116a6.837,6.837,0,0,0,5.38,2.616h13.147a6.811,6.811,0,0,0,5.593-2.9c.515-.738,1.045-1.572,1.576-2.478a1.214,1.214,0,0,0,.083-.169C1791.736,828.72,1783.912,820.971,1778.6,818Zm-11.34-8.628c2.533-.024,2.992.341,3.029.376a1.783,1.783,0,0,0,1.373.63c.577,0,1.506-.219,3.084-2.005a6.223,6.223,0,0,1,1.713,1.055,1.53,1.53,0,0,0,1.615,1.223,6.018,6.018,0,0,0,1.555-.3c-1.636,2.384-3.376,5.395-3.6,7.66a1.959,1.959,0,0,1-.187.3,2.35,2.35,0,0,1-.34-.37c-1.7-2.21-3.221-1.775-4.219-1.165A25.488,25.488,0,0,0,1767.263,809.373Zm17.8,29.056c-.481.816-.958,1.564-1.419,2.226a4.25,4.25,0,0,1-3.491,1.807H1767.01a4.253,4.253,0,0,1-3.35-1.618l-.084-.11a12.491,12.491,0,0,1,1.174-16.2,26.734,26.734,0,0,1,5.227-4.17,1.291,1.291,0,0,0,.48-.071,6.317,6.317,0,0,0,1.713-1.011c.22-.167.554-.42.618-.45,0,0,.23.077.689.674a3.06,3.06,0,0,0,2.407,1.436,2.235,2.235,0,0,0,.328-.024,2.422,2.422,0,0,0,1.253-.612C1782.023,822.89,1788.622,829.447,1785.067,838.429Z" fill="#333" />
  </g>
</svg>