<svg xmlns="http://www.w3.org/2000/svg" viewBox="0 0 66.755 67.807">
  <g id="industryico_Indus" transform="translate(-698.358 -757.779)">
    <path id="Path_166" data-name="Path 166" d="M3611.1,384.828l-5.4-6.375a1.275,1.275,0,0,0-.973-.451h0a1.273,1.273,0,0,0-.973.453l-4.4,5.221-4.42-5.223a1.274,1.274,0,0,0-.955-.451,1.4,1.4,0,0,0-.969.425l-4.687,5.248-4.13-5.192a1.276,1.276,0,0,0-.961-.481,1.262,1.262,0,0,0-.987.425l-4.116,4.609-1.463-10.444a1.274,1.274,0,0,0-1.262-1.1h-18.582a1.274,1.274,0,0,0-1.262,1.1l-4.2,29.962a1.273,1.273,0,0,0,1.262,1.451h26.974a.086.086,0,0,1,.016,0,1.275,1.275,0,0,0,1.275-1.275,1.294,1.294,0,0,0-.057-.38l-.022-.154h29.309a1.275,1.275,0,0,0,1.275-1.274v-15.27A1.281,1.281,0,0,0,3611.1,384.828Zm-57,16.628,3.839-27.413H3574.3l3.839,27.413Zm54.756-1.809h-28.392l-1.863-13.3,4.547-5.092L3587,386.1v10.246a1.275,1.275,0,1,0,2.549,0v-10.2l4.395-4.92,4.145,4.9v10.223a1.275,1.275,0,1,0,2.549,0V386.117l4.1-4.865,4.118,4.867Z" transform="translate(-2853 421.581)"  />
    <path id="Path_167" data-name="Path 167" d="M3572.812,371.13h-11.987a1.275,1.275,0,0,1-.965-.441c-.217-.252-5.3-6.223-4.1-12.29.561-2.847,2.379-5.194,5.409-6.991a8.7,8.7,0,0,1,.8-7.126,9.12,9.12,0,0,1,8.12-4.347,16.879,16.879,0,0,1,6.955,1.7,11.79,11.79,0,0,1,9.781-5.435A11.326,11.326,0,0,1,3597,342.467a11.618,11.618,0,0,1,5.189-1.339c4.223,0,7.072,2.8,7.5,7.24,4.559.484,8.083,3.26,8.4,6.778.124,1.364-.127,5.831-8.118,7.752-.522,4.206-3.655,7.587-7.227,7.587-1.524,0-4.24-.643-6.4-4.634-2.782,2.322-5.94,4.572-9.917,4.573-2.737,0-5.588-1.055-8.686-3.218a23.906,23.906,0,0,1-4.225,3.709A1.271,1.271,0,0,1,3572.812,371.13Zm-11.373-2.549h10.971a19.036,19.036,0,0,0,4.058-3.864,1.274,1.274,0,0,1,1.812-.277c3.032,2.312,5.7,3.435,8.152,3.435,3.651,0,6.637-2.561,9.526-5.037a1.275,1.275,0,0,1,2.007.478c1.239,2.98,2.938,4.621,4.784,4.621,2.46,0,4.681-2.855,4.753-6.108a1.273,1.273,0,0,1,1.025-1.221c4.545-.91,7.239-2.914,7.029-5.232-.192-2.126-2.962-4.463-7.1-4.532a1.275,1.275,0,0,1-1.253-1.275c0-3.745-1.826-5.892-5.011-5.892a9.658,9.658,0,0,0-5.153,1.713,1.273,1.273,0,0,1-1.927-.724,8.567,8.567,0,0,0-8.291-5.919c-3.364,0-6.279,1.835-8.21,5.167a1.274,1.274,0,0,1-1.683.5,15.311,15.311,0,0,0-6.843-1.926,6.493,6.493,0,0,0-5.928,3.1,5.95,5.95,0,0,0-.242,5.774,1.275,1.275,0,0,1-.542,1.748c-2.927,1.484-4.647,3.429-5.114,5.78C3557.459,362.909,3560.4,367.214,3561.439,368.581Z" transform="translate(-2853 421.581)"  />
    <path id="Path_168" data-name="Path 168" d="M3566.121,360.141a1.38,1.38,0,0,1-.181-.013,1.272,1.272,0,0,1-1.083-1.435c.014-.106,1.6-10.587,12.65-10.587a1.275,1.275,0,1,1,0,2.549c-8.807,0-10.076,8.05-10.126,8.393A1.277,1.277,0,0,1,3566.121,360.141Z" transform="translate(-2853 421.581)"  />
  </g>
</svg>