<svg xmlns="http://www.w3.org/2000/svg" viewBox="0 0 77.415 57.466">
  <g id="industryico_ConstRE" transform="translate(-36.971 -230.267)">
    <path id="Path_902" data-name="Path 902" d="M69.213,242.434h-.071a4.718,4.718,0,0,0-4.712,4.712v3.764a1.2,1.2,0,0,0,2.4,0v-3.764a2.315,2.315,0,0,1,2.312-2.312h.071a2.315,2.315,0,0,1,2.312,2.312v3.764a1.2,1.2,0,0,0,2.4,0v-3.764A4.718,4.718,0,0,0,69.213,242.434Z"  />
    <path id="Path_903" data-name="Path 903" d="M82.215,242.434h-.071a4.718,4.718,0,0,0-4.712,4.712v3.764a1.2,1.2,0,0,0,2.4,0v-3.764a2.315,2.315,0,0,1,2.312-2.312h.071a2.315,2.315,0,0,1,2.312,2.312v3.764a1.2,1.2,0,0,0,2.4,0v-3.764A4.718,4.718,0,0,0,82.215,242.434Z"  />
    <path id="Path_904" data-name="Path 904" d="M69.213,255.58h-.071a4.718,4.718,0,0,0-4.712,4.713v3.763a1.2,1.2,0,1,0,2.4,0v-3.763a2.315,2.315,0,0,1,2.312-2.313h.071a2.315,2.315,0,0,1,2.312,2.313v3.763a1.2,1.2,0,1,0,2.4,0v-3.763A4.718,4.718,0,0,0,69.213,255.58Z"  />
    <path id="Path_905" data-name="Path 905" d="M82.215,255.58h-.071a4.718,4.718,0,0,0-4.712,4.713v3.763a1.2,1.2,0,1,0,2.4,0v-3.763a2.315,2.315,0,0,1,2.312-2.313h.071a2.315,2.315,0,0,1,2.312,2.313v3.763a1.2,1.2,0,1,0,2.4,0v-3.763A4.718,4.718,0,0,0,82.215,255.58Z"  />
    <path id="Path_906" data-name="Path 906" d="M69.213,268.727h-.071a4.718,4.718,0,0,0-4.712,4.712V277.2a1.2,1.2,0,1,0,2.4,0v-3.764a2.314,2.314,0,0,1,2.312-2.312h.071a2.314,2.314,0,0,1,2.312,2.312V277.2a1.2,1.2,0,1,0,2.4,0v-3.764A4.718,4.718,0,0,0,69.213,268.727Z"  />
    <path id="Path_907" data-name="Path 907" d="M82.215,268.727h-.071a4.718,4.718,0,0,0-4.712,4.712V277.2a1.2,1.2,0,1,0,2.4,0v-3.764a2.314,2.314,0,0,1,2.312-2.312h.071a2.314,2.314,0,0,1,2.312,2.312V277.2a1.2,1.2,0,1,0,2.4,0v-3.764A4.718,4.718,0,0,0,82.215,268.727Z"  />
    <path id="Path_908" data-name="Path 908" d="M113.186,285.333H109.2V250.942a1.2,1.2,0,0,0-1.2-1.2H98.057a1.2,1.2,0,0,0,0,2.4H106.8v33.191H93.708V272.5H95.32a3,3,0,0,1,3,2.995v4.2a1.2,1.2,0,1,0,2.4,0v-4.2a5.4,5.4,0,0,0-5.4-5.4H93.708V258.613H95.32a3,3,0,0,1,3,3v4.2a1.2,1.2,0,1,0,2.4,0v-4.2a5.4,5.4,0,0,0-5.4-5.4H93.708V232.667h2.3a1.2,1.2,0,0,0,0-2.4H55.345a1.2,1.2,0,0,0,0,2.4h2.3v23.546H56.037a5.4,5.4,0,0,0-5.4,5.4v4.2a1.2,1.2,0,1,0,2.4,0v-4.2a3,3,0,0,1,3-3h1.612V270.1H56.037a5.4,5.4,0,0,0-5.4,5.4v4.2a1.2,1.2,0,1,0,2.4,0v-4.2a3,3,0,0,1,3-2.995h1.612v12.831H44.561V252.142h8.7a1.2,1.2,0,1,0,0-2.4h-9.9a1.2,1.2,0,0,0-1.2,1.2v34.391h-3.99a1.2,1.2,0,1,0,0,2.4h75.015a1.2,1.2,0,1,0,0-2.4Zm-53.137-5.639V232.667H91.308v52.666H60.049Z"  />
  </g>
</svg>