<svg xmlns="http://www.w3.org/2000/svg" viewBox="0 0 77.331 49.559">
  <g id="industryico_Govt" transform="translate(-1848.139 -345.322)">
    <path id="Path_499" data-name="Path 499" d="M1867.556,369.215a1.3,1.3,0,0,1-.6-.149l-6.322-3.323-6.32,3.323a1.294,1.294,0,0,1-1.877-1.363l1.207-7.039-5.113-4.984a1.293,1.293,0,0,1,.716-2.206l7.068-1.027,3.16-6.4a1.293,1.293,0,0,1,2.319,0l3.16,6.4,7.068,1.027a1.293,1.293,0,0,1,.717,2.206l-5.115,4.984,1.208,7.039a1.3,1.3,0,0,1-1.275,1.512Zm-6.923-6.226a1.3,1.3,0,0,1,.6.148l4.6,2.42-.88-5.126a1.292,1.292,0,0,1,.373-1.144l3.724-3.63-5.147-.749a1.293,1.293,0,0,1-.974-.707l-2.3-4.664-2.3,4.664a1.292,1.292,0,0,1-.973.707l-5.148.749,3.724,3.63a1.292,1.292,0,0,1,.372,1.144l-.879,5.126,4.6-2.42A1.31,1.31,0,0,1,1860.633,362.989Z"  />
    <path id="Path_500" data-name="Path 500" d="M1893.727,369.215a1.3,1.3,0,0,1-.6-.149l-6.321-3.323-6.32,3.323a1.294,1.294,0,0,1-1.877-1.363l1.207-7.039-5.113-4.984a1.293,1.293,0,0,1,.716-2.206l7.067-1.027,3.161-6.4a1.293,1.293,0,0,1,2.319,0l3.161,6.4,7.067,1.027a1.293,1.293,0,0,1,.716,2.206l-5.113,4.984L1895,367.7a1.3,1.3,0,0,1-1.275,1.512Zm-6.923-6.226a1.3,1.3,0,0,1,.6.148l4.6,2.42-.88-5.126a1.292,1.292,0,0,1,.373-1.144l3.724-3.63-5.147-.749a1.294,1.294,0,0,1-.974-.707l-2.3-4.664-2.3,4.664a1.294,1.294,0,0,1-.974.707l-5.147.749,3.724,3.63a1.292,1.292,0,0,1,.372,1.144l-.879,5.126,4.6-2.42A1.3,1.3,0,0,1,1886.8,362.989Z"  />
    <path id="Path_501" data-name="Path 501" d="M1880.642,394.88a1.3,1.3,0,0,1-.6-.148l-6.321-3.323-6.321,3.323a1.293,1.293,0,0,1-1.876-1.363l1.207-7.039-5.114-4.984a1.293,1.293,0,0,1,.717-2.206l7.067-1.027,3.161-6.4a1.293,1.293,0,0,1,2.319,0l3.16,6.4,7.067,1.027a1.293,1.293,0,0,1,.717,2.206l-5.114,4.984,1.208,7.039a1.294,1.294,0,0,1-1.275,1.511Zm-6.923-6.225a1.3,1.3,0,0,1,.6.148l4.6,2.42-.879-5.126a1.294,1.294,0,0,1,.372-1.144l3.724-3.631-5.147-.748a1.292,1.292,0,0,1-.973-.707l-2.3-4.664-2.3,4.664a1.29,1.29,0,0,1-.973.707l-5.147.748,3.724,3.631a1.291,1.291,0,0,1,.372,1.144l-.879,5.126,4.6-2.42A1.3,1.3,0,0,1,1873.719,388.655Z"  />
    <path id="Path_502" data-name="Path 502" d="M1906.813,394.88a1.3,1.3,0,0,1-.6-.148l-6.321-3.323-6.321,3.323a1.293,1.293,0,0,1-1.876-1.363l1.207-7.039-5.113-4.984a1.293,1.293,0,0,1,.716-2.206l7.067-1.027,3.16-6.4a1.294,1.294,0,0,1,2.32,0l3.16,6.4,7.067,1.027a1.293,1.293,0,0,1,.717,2.206l-5.114,4.984,1.207,7.039a1.293,1.293,0,0,1-1.274,1.511Zm-6.923-6.225a1.291,1.291,0,0,1,.6.148l4.6,2.42-.88-5.126a1.292,1.292,0,0,1,.372-1.144l3.724-3.631-5.146-.748a1.29,1.29,0,0,1-.974-.707l-2.3-4.664-2.3,4.664a1.29,1.29,0,0,1-.973.707l-5.147.748,3.724,3.631a1.292,1.292,0,0,1,.372,1.144l-.879,5.126,4.6-2.42A1.3,1.3,0,0,1,1899.89,388.655Z"  />
    <path id="Path_503" data-name="Path 503" d="M1919.9,369.215a1.294,1.294,0,0,1-.6-.149l-6.321-3.323-6.321,3.323a1.294,1.294,0,0,1-1.877-1.363l1.207-7.039-5.113-4.984a1.293,1.293,0,0,1,.716-2.206l7.067-1.027,3.161-6.4a1.293,1.293,0,0,1,2.319,0l3.161,6.4,7.067,1.027a1.293,1.293,0,0,1,.716,2.206l-5.113,4.984,1.207,7.039a1.3,1.3,0,0,1-1.275,1.512Zm-6.922-6.226a1.3,1.3,0,0,1,.6.148l4.6,2.42-.88-5.126a1.3,1.3,0,0,1,.372-1.144l3.725-3.63-5.147-.749a1.293,1.293,0,0,1-.974-.707l-2.3-4.664-2.3,4.664a1.293,1.293,0,0,1-.974.707l-5.147.749,3.724,3.63a1.292,1.292,0,0,1,.372,1.144l-.879,5.126,4.6-2.42A1.31,1.31,0,0,1,1912.976,362.989Z"  />
  </g>
</svg>