<svg xmlns="http://www.w3.org/2000/svg" viewBox="0 0 64.096 62.584">
  <g id="industryico_Ag" transform="translate(-1288.78 -672.113)">
    <path id="Path_203" data-name="Path 203" d="M1317.268,734.7h-8.751a1.274,1.274,0,0,1-1.254-1.5c.013-.076,1.289-8.018-5.306-17.012a1.273,1.273,0,0,1,1.332-1.99,10.29,10.29,0,0,1,5.714,3.17c.71-5.366,3.076-12.132,7.344-16.957a1.274,1.274,0,0,1,1.971,1.613c-2.412,3.191-2.822,11.233-2.746,16.214a46.388,46.388,0,0,1,7.383-5.422,1.275,1.275,0,0,1,1.44,2.094c-9.036,7.346-5.94,18.039-5.907,18.146a1.274,1.274,0,0,1-1.22,1.643Zm-7.353-2.549h5.787a21.57,21.57,0,0,1,1.4-11.857c-1.1.988-1.766,1.668-1.783,1.684a1.273,1.273,0,0,1-2.186-.8,71.161,71.161,0,0,1,.183-10.583,30.112,30.112,0,0,0-1.994,9.972,1.274,1.274,0,0,1-2.287.769,18.887,18.887,0,0,0-2.63-2.906A26.527,26.527,0,0,1,1309.915,732.148Z" fill="#333"/>
    <path id="Path_204" data-name="Path 204" d="M1301.3,724.037c-5.941,0-10.176-5.2-11.712-10.5-1.312-4.16-1.023-7.728.867-10.576,3.264-4.916,10.3-6.073,13.166-6.341a1.274,1.274,0,1,1,.238,2.537c-1.956.183-8.55,1.1-11.28,5.214-1.444,2.175-1.629,5.01-.552,8.427,1.006,3.468,4.532,9.678,10.732,8.553a1.274,1.274,0,1,1,.455,2.507A10.72,10.72,0,0,1,1301.3,724.037Z" fill="#333"/>
    <path id="Path_205" data-name="Path 205" d="M1325.077,724.234a6.774,6.774,0,0,1-3.884-1.248,1.274,1.274,0,1,1,1.595-1.988c.31.237,3.226,2.281,6.7-1.955,2.591-3.161,3.754-5.867,3.457-8.041-.224-1.636-1.272-3.092-3.2-4.451a1.275,1.275,0,0,1-.5-1.372l.109-.4a46.632,46.632,0,0,0,1.479-7.237,9.523,9.523,0,0,0-4.306-9.02,8.985,8.985,0,0,0-9.546-.325,8.389,8.389,0,0,0-1.571,1.153,1.27,1.27,0,0,1-1.267.285c-3.544-1.146-6.242-1.009-7.8.4-1.582,1.425-2.075,4.194-1.353,7.6a1.274,1.274,0,0,1-2.493.529c-.916-4.318-.136-7.97,2.139-10.02,1.521-1.37,4.406-2.642,9.6-1.141a11.124,11.124,0,0,1,1.479-1.011,11.492,11.492,0,0,1,12.21.4,12.057,12.057,0,0,1,5.446,11.426,47.051,47.051,0,0,1-1.435,7.2,8.763,8.763,0,0,1,3.54,5.65c.4,2.946-.909,6.217-4.01,10C1329.167,723.454,1326.9,724.234,1325.077,724.234Z" fill="#333"/>
    <path id="Path_206" data-name="Path 206" d="M1352.517,716.962l-9.05-15.645h1.9a2.64,2.64,0,0,0,2.185-4.122l-8.254-12.163h.545a2.639,2.639,0,0,0,2.185-4.121l-4.629-6.832a4.484,4.484,0,0,0-7.535.178l-4.458,7.3a2.288,2.288,0,0,0,1.952,3.479h2.12a1.274,1.274,0,1,0,0-2.548h-1.654l4.215-6.9a1.9,1.9,0,0,1,1.6-.924,1.876,1.876,0,0,1,1.646.848l4.63,6.831a.092.092,0,0,1-.076.143H1336.9a1.274,1.274,0,0,0-1.055,1.989l9.6,14.153a.077.077,0,0,1,.006.094.08.08,0,0,1-.081.048h-4.111a1.275,1.275,0,0,0-1.1,1.913l10.155,17.557a.092.092,0,0,1-.079.137h-12.639v-2.112a1.274,1.274,0,0,0-2.548,0v9.392H1332.2v-1.177a1.274,1.274,0,1,0-2.549,0v1.447a2.281,2.281,0,0,0,2.278,2.279h3.387a2.281,2.281,0,0,0,2.278-2.279v-5h12.639a2.64,2.64,0,0,0,2.286-3.962Z" fill="#333"/>
  </g>
</svg>
