<?xml version="1.0" encoding="utf-8"?>
<!-- Generator: Adobe Illustrator 25.2.1, SVG Export Plug-In . SVG Version: 6.00 Build 0)  -->
<svg version="1.1" id="Layer_1" xmlns="http://www.w3.org/2000/svg" xmlns:xlink="http://www.w3.org/1999/xlink" x="0px" y="0px"
	 viewBox="0 0 31 24" style="enable-background: new 0 0 31 24;" xml:space="preserve">
<style type="text/css">
  .st0 {fill: #fff;}
  .st1 {fill: none;}

  .st2 {fill: none;
    stroke-width: 0.5;}
  .st3 {enable-background: new;}
</style>
<g>
	<ellipse id="Ellipse_2" class="st0" cx="15.5" cy="12.5" rx="15.5" ry="11.5"/>
	<g id="Ellipse_3" transform="translate(593 872)">
		<ellipse class="st1" cx="-577.5" cy="-859.5" rx="14.5" ry="10.5"/>
		<ellipse class="st2" cx="-577.5" cy="-859.5" rx="14.2" ry="10.2"/>
	</g>
	<g class="st3">
		<path class="st4" d="M19,8.3c0-0.4,0.2-0.7,0.8-0.7c0.2,0,0.4,0.1,0.6,0.1c0.1,0,0.2,0,0.3-0.1c0.1-0.1,0.1-0.3,0.1-0.4
			c0-0.4-0.3-1-1.1-1c-2.6,0-3.4,5.9-5.9,9.4c-0.1,0.1,0,0.2,0.1,0.2c0.8,0.1,1.6,0.2,2.6,0.2c2.2,0,3.6-0.5,4.4-1.2
			c0.1-0.1,0.3,0,0.3,0.1c0,1.1-0.9,3.3-4,3.3c-1.5,0-3-0.5-4.4-1.1c-0.1,0-0.2,0-0.3,0c-0.8,0.7-1.8,1.1-3,1.1
			c-1.7,0-2.4-0.8-2.4-1.8c0-1.2,1.1-1.6,2-1.6c0.7,0,1.5,0.2,2.4,0.5c0.1,0,0.2,0,0.3-0.1c2-3.5,3.2-10.3,7.6-10.3
			c1.9,0,3.1,1.2,3.1,2.6c0,0.9-0.6,2.1-1.9,2.1C19.5,9.6,19,9,19,8.3z M9.2,17.2c0.6,0,1.1-0.3,1.5-0.7c0.1-0.1,0-0.2,0-0.2
			C10.1,16.1,9.6,16,9.2,16s-0.9,0.1-0.9,0.6C8.3,17,8.7,17.2,9.2,17.2z"/>
	</g>
</g>
</svg>
