<?xml version="1.0" encoding="utf-8"?>
<!-- Generator: Adobe Illustrator 25.2.1, SVG Export Plug-In . SVG Version: 6.00 Build 0)  -->
<svg version="1.1" id="Layer_1" xmlns="http://www.w3.org/2000/svg" xmlns:xlink="http://www.w3.org/1999/xlink" x="0px" y="0px"
	 viewBox="0 0 64 25" style="enable-background: new 0 0 64 25;" xml:space="preserve">
<style type="text/css">
  .st0 {fill: #fff;}
  .st1 {fill: none;}
  .st3 {enable-background: new;}
</style>
<g>
	<ellipse id="Ellipse_2" class="st0" cx="32" cy="13.5" rx="32" ry="11.5"/>
	<g id="Path_1" transform="translate(593 903)">
		<path class="st1" d="M-561-900c17.1,0,31,4.7,31,10.5c0,1.4-0.8,2.8-2.5,4.2c-4.4,3.6-15.5,6.3-28.5,6.3c-17.1,0-31-4.7-31-10.5
			S-578.1-900-561-900z"/>
		<path class="st2" d="M-561-899.5c-8.2,0-16,1.1-21.8,3c-2.8,0.9-5,2-6.5,3.3c-1.5,1.2-2.2,2.4-2.2,3.7s0.8,2.5,2.2,3.7
			c1.5,1.2,3.7,2.3,6.5,3.3c5.8,2,13.5,3,21.8,3c6.2,0,12.2-0.6,17.3-1.8c4.9-1.1,8.7-2.7,10.8-4.4c1.6-1.3,2.4-2.5,2.4-3.8
			c0-1.3-0.8-2.5-2.2-3.7c-1.5-1.2-3.7-2.3-6.5-3.3C-545-898.4-552.8-899.5-561-899.5 M-561-900c17.1,0,31,4.7,31,10.5
			c0,1.4-0.8,2.8-2.5,4.2c-4.4,3.6-15.5,6.3-28.5,6.3c-17.1,0-31-4.7-31-10.5S-578.1-900-561-900z"/>
	</g>
	<g class="st3">
		<path class="st2" d="M24,8.3c0-0.4,0.2-0.7,0.8-0.7c0.2,0,0.4,0.1,0.6,0.1c0.1,0,0.2,0,0.3-0.1c0.1-0.1,0.1-0.3,0.1-0.4
			c0-0.4-0.3-1-1.1-1c-2.6,0-3.4,5.9-5.9,9.4c-0.1,0.1,0,0.2,0.1,0.2c0.8,0.1,1.6,0.2,2.6,0.2c2.2,0,3.6-0.5,4.4-1.2
			c0.1-0.1,0.3,0,0.3,0.1c0,1.1-0.9,3.3-4,3.3c-1.5,0-3-0.5-4.4-1.1c-0.1,0-0.2,0-0.3,0c-0.8,0.7-1.8,1.1-3,1.1
			c-1.7,0-2.4-0.8-2.4-1.8c0-1.2,1.1-1.6,2-1.6c0.7,0,1.5,0.2,2.4,0.5c0.1,0,0.2,0,0.3-0.1c2-3.5,3.2-10.3,7.6-10.3
			c1.9,0,3.1,1.2,3.1,2.6c0,0.9-0.6,2.1-1.9,2.1C24.5,9.6,24,9,24,8.3z M14.2,17.2c0.6,0,1.1-0.3,1.5-0.7c0.1-0.1,0-0.2,0-0.2
			c-0.6-0.2-1.1-0.4-1.5-0.4s-0.9,0.1-0.9,0.6C13.3,17,13.7,17.2,14.2,17.2z"/>
		<path class="st2" d="M29.8,13.6l-1.1,1.7c-0.2,0.3-0.4,0.6-0.4,1c0,0.3,0.2,0.6,0.6,0.6c0.6,0,1.9-1,2.5-2.1l2.3-4.1
			c0.1-0.2,0.3-0.3,0.5-0.3h1.2c0.2,0,0.3,0.2,0.2,0.3l-2.3,4c-0.3,0.6-0.5,0.9-0.5,1.4c0,0.6,0.3,0.7,0.7,0.7c0.2,0,0.4,0,0.6-0.1
			c0.1-0.1,0.3,0.1,0.3,0.2c-0.2,0.5-0.8,1.3-1.8,1.3c-0.8,0-1.5-0.5-1.6-1.5c0-0.1-0.1-0.1-0.1-0.1c-0.8,0.7-1.9,1.6-3,1.6
			c-0.7,0-1.5-0.4-1.5-1.5c0-0.6,0.3-1.1,0.6-1.7l1.2-1.9c0.3-0.6,0.5-0.9,0.5-1.1c0-0.4-0.2-0.4-0.5-0.4c-0.2,0-0.4,0-0.6,0.1
			c-0.1,0.1-0.3-0.1-0.2-0.2c0.2-0.5,0.8-1.3,1.7-1.3c0.7,0,1.5,0.2,1.5,1.3C30.5,12.2,30.2,12.8,29.8,13.6z"/>
		<path class="st2" d="M41.5,13.7c-0.6,0-0.9-0.4-0.9-0.9c0-0.4,0.3-0.7,0.6-0.9c0.1-0.1,0.1-0.1,0-0.2c-0.2-0.2-0.4-0.2-0.7-0.2
			c-1.7,0-3.2,2.4-3.2,4c0,0.9,0.5,1.4,1.3,1.4c0.6,0,1.2-0.3,2-1.1c0.1-0.1,0.3-0.1,0.4,0.1c0.1,0.2,0.1,0.3,0.1,0.5
			c0,1.1-1.1,2.1-2.8,2.1c-1.8,0-2.7-1.1-2.7-2.8c0-2.7,2.6-5.4,5-5.4c1.3,0,2.4,0.7,2.4,2.3C42.7,13.2,42.1,13.7,41.5,13.7z"/>
		<path class="st2" d="M51.6,10.4c0.2,0,0.3,0.2,0.2,0.3l-2.9,5.9c-1.4,2.9-2,5.6-5,5.6c-1.9,0-2.3-1.1-2-2c0.1-0.2,0.3-0.2,0.4-0.1
			c0.4,0.4,0.9,0.5,1.3,0.5c1.6,0,2.2-1.6,3.1-3.5c0,0,0-0.1-0.1-0.1c-0.7,0.6-1.6,1-2.4,1c-0.7,0-1.5-0.5-1.5-1.5
			c0-0.6,0.3-1.1,0.6-1.6l1.1-1.9c0.3-0.6,0.5-0.8,0.5-1.1c0-0.4-0.2-0.4-0.4-0.4s-0.4,0-0.6,0.1c-0.1,0.1-0.3-0.1-0.2-0.2
			c0.2-0.5,0.8-1.3,1.9-1.3c0.6,0,1.3,0.3,1.3,1.3c0,0.6-0.3,1.3-0.7,2l-1,1.7c-0.2,0.3-0.4,0.7-0.4,1c0,0.3,0.2,0.6,0.6,0.6
			c0.9,0,2.3-1.4,2.9-2.5l1.8-3.6c0.1-0.2,0.3-0.3,0.5-0.3H51.6z"/>
	</g>
</g>
</svg>
