<svg xmlns="http://www.w3.org/2000/svg" viewBox="0 0 489.946 87.061">
  <g id="sopheon_logo_wht_txt" transform="translate(-52 -164.89)">
    <g id="Group_2" data-name="Group 2" transform="translate(0 -193)">
      <g id="Group_1" data-name="Group 1">
        <path id="Path_1" data-name="Path 1" d="M175.75,418.853l2.476-4.6a2.032,2.032,0,0,1,2.947-.589,24.424,24.424,0,0,0,10.963,3.065c3.537,0,5.776-1.415,5.776-4.009,0-3.183-2.593-4.715-9.077-7.662-7.308-3.183-13.439-7.663-13.439-15.443,0-5.894,4.834-12.968,16.151-12.968a26.437,26.437,0,0,1,13.91,3.655,2.633,2.633,0,0,1,.943,3.419l-2.122,4.008a2.479,2.479,0,0,1-3.065.943s-5.187-2.476-9.666-2.476c-4.009,0-5.3,1.768-5.3,3.537,0,3.065,2.947,4.362,7.544,6.366,8.606,3.772,15.679,7.426,15.679,16.268,0,7.309-6.955,13.792-17.447,13.792-7.9,0-13.085-2.829-15.561-4.833A1.985,1.985,0,0,1,175.75,418.853Z" fill="#fff" />
        <path id="Path_2" data-name="Path 2" d="M240.85,376.65c13.2,0,23.814,11.317,23.814,24.638,0,13.558-10.61,24.874-23.814,24.874s-23.812-11.316-23.812-24.874C217.038,387.967,227.648,376.65,240.85,376.65Zm0,39.374c7.427,0,13.322-6.6,13.322-14.736,0-7.9-5.9-14.381-13.322-14.381s-13.32,6.483-13.32,14.381C227.53,409.423,233.424,416.024,240.85,416.024Z" fill="#fff" />
        <path id="Path_3" data-name="Path 3" d="M330.626,360.13a2.318,2.318,0,0,1,2.239-2.24H339.7a2.32,2.32,0,0,1,2.24,2.24v21.59c1.178-.826,6.6-5.07,14.146-5.07,13.321,0,19.687,9.549,19.687,22.4v23.694a2.32,2.32,0,0,1-2.24,2.24h-6.6a2.238,2.238,0,0,1-2.239-2.24v-23.93c0-7.663-3.89-11.906-10.021-11.906-7.191,0-12.142,5.422-12.731,7.426v28.41a2.138,2.138,0,0,1-2.358,2.24h-6.72a2.318,2.318,0,0,1-2.239-2.24Z" fill="#fff" />
        <path id="Path_4" data-name="Path 4" d="M408.963,376.65c12.26,0,21.691,9.2,21.691,21.809a28.858,28.858,0,0,1-.236,3.183,2.168,2.168,0,0,1-2.122,2H396.231a13.651,13.651,0,0,0,13.557,12.614,20.108,20.108,0,0,0,10.492-3.419c1.414-.825,2.24-1.3,3.183-.118l3.3,4.48c.825.943,1.179,1.886-.236,3.065a27.091,27.091,0,0,1-17.447,5.894c-14.264,0-23.7-11.2-23.7-24.756C385.386,388.085,394.817,376.65,408.963,376.65Zm10.928,18.767c-.354-5.659-5.27-9.689-11.046-9.689-6.366,0-11.517,3.8-12.225,9.689Z" fill="#fff" />
        <path id="Path_5" data-name="Path 5" d="M462.959,376.65c13.2,0,23.813,11.317,23.813,24.638,0,13.558-10.609,24.874-23.813,24.874s-23.812-11.316-23.812-24.874C439.147,387.967,449.756,376.65,462.959,376.65Zm0,39.374c7.427,0,13.321-6.6,13.321-14.736,0-7.9-5.894-14.381-13.321-14.381s-13.321,6.483-13.321,14.381C449.638,409.423,455.533,416.024,462.959,416.024Z" fill="#fff" />
        <path id="Path_6" data-name="Path 6" d="M496.8,380.069a2.246,2.246,0,0,1,2.24-2.239h6.954a1.912,1.912,0,0,1,1.887,1.414V380.8a.322.322,0,0,0,.5.268,24.525,24.525,0,0,1,13.878-4.418c14.382,0,19.687,10.139,19.687,22.4v23.694a2.247,2.247,0,0,1-2.24,2.24h-6.719a2.238,2.238,0,0,1-2.24-2.24V398.577c0-7.545-3.655-11.67-9.785-11.67-7.426,0-12.495,5.422-13.085,7.072v28.764c0,1.533-.707,2.24-2.712,2.24h-6.13a2.246,2.246,0,0,1-2.239-2.239Z" fill="#fff" />
      </g>
      <path id="Path_7" data-name="Path 7" d="M298.029,376.65c-6.231,0-8.951,2.47-11.757,4.418a.322.322,0,0,1-.5-.268v-1.556a1.912,1.912,0,0,0-1.887-1.414h-6.954a2.246,2.246,0,0,0-2.24,2.239v62.56a2.319,2.319,0,0,0,2.24,2.24h6.6a2.176,2.176,0,0,0,2.475-2.24v-19.65a23.6,23.6,0,0,0,11.553,3.183c12.85,0,22.987-10.845,22.987-24.638C320.544,387.967,311,376.65,298.029,376.65Zm-1.887,39.374a17.793,17.793,0,0,1-8.5-2.2,3.621,3.621,0,0,1-1.871-3.18V395.024a5.014,5.014,0,0,1,.895-2.893,12.171,12.171,0,0,1,9.951-5.224c8.016,0,12.967,6.719,12.967,14.617C309.581,409.54,303.922,416.024,296.142,416.024Z" fill="#fff" />
    </g>
    <path id="Path_8" data-name="Path 8" d="M136.547,365.816l.009-.017a1,1,0,0,0-.348-1.35c-10.134-6.126-24.28-8.324-39.346-5.032-22.074,4.824-38.835,18.906-43.177,34.271-9.261,32.773,21.811,41.137,40.537,37.665,10.781-2,13.992-10.764,13.043-16.317-1.16-6.788-7.215-9.537-19.027-9.511-12.614.029-23.272-10.331-13.589-25.679,9.487-15.037,40.744-22.971,60.587-13.619A1,1,0,0,0,136.547,365.816Z" transform="translate(0 -193)" fill="#61a39f" />
    <path id="Path_9" data-name="Path 9" d="M69.165,437.026l-.009.017a1,1,0,0,0,.347,1.35c10.135,6.126,24.281,8.324,39.347,5.032,22.074-4.824,38.835-18.906,43.177-34.272,9.261-32.772-21.811-41.136-40.537-37.664-10.781,2-13.992,10.763-13.043,16.316,1.16,6.788,7.215,9.538,19.027,9.511,12.614-.028,23.272,10.331,13.589,25.679-9.487,15.037-40.744,22.972-60.588,13.619A1,1,0,0,0,69.165,437.026Z" transform="translate(0 -193)" fill="#6192b7" />
  </g>
</svg>